<?xml version="1.0" standalone="no"?>
<!DOCTYPE svg PUBLIC "-//W3C//DTD SVG 1.1//EN" "http://www.w3.org/Graphics/SVG/1.1/DTD/svg11.dtd" >
<svg xmlns="http://www.w3.org/2000/svg">
<defs>
<font id="ericsson-icons" horiz-adv-x="1024">
<font-face units-per-em="1024" ascent="960" descent="-64" />
<missing-glyph horiz-adv-x="1024" />
<glyph unicode="&#x20;" horiz-adv-x="512" d="" />
<glyph unicode="&#xe900;" glyph-name="abs-brakes" d="M512.256 832c-212.064 0-384-171.936-384-384s171.936-384 384-384c212.064 0 384 171.936 384 384v0c0 212.064-171.936 384-384 384v0zM512.256 128c-176.736 0-320 143.264-320 320s143.264 320 320 320c176.736 0 320-143.264 320-320v0c-0.224-176.64-143.36-319.776-319.968-320h-0.032zM318.432 553.344l-73.408-210.688h50.016l16.704 49.216h68.416l16.704-49.216h50.848l-73.408 210.688zM327.84 438.496l18.208 53.568 18.080-53.568zM609.28 492.224c0 0.032 0 0.064 0 0.096 0 33.856-27.424 61.28-61.28 61.28-1.888 0-3.776-0.096-5.6-0.256l0.224 0.032h-86.72v-210.688h89.184c1.568-0.128 3.36-0.224 5.184-0.224 35.36 0 64 28.64 64 64 0 0.224 0 0.448 0 0.672v-0.032c0 0.48 0.032 1.024 0.032 1.6 0 18.080-8.256 34.24-21.184 44.928l-0.096 0.064c10.016 9.408 16.288 22.752 16.288 37.536 0 0.352 0 0.704 0 1.024v-0.064zM503.616 506.72h38.4c12.64 0 19.552-5.76 19.552-16.192s-7.136-16.48-19.552-16.48h-38.4zM544.512 389.216h-40.896v38.304h40.896c14.176 0 22.304-6.944 22.304-19.008 0-12.256-8.096-19.296-22.304-19.296zM717.504 469.12l-14.272 5.056c-22.848 7.872-28.736 12.16-28.736 20.832 0 10.56 9.952 15.904 29.504 15.904 0.288 0 0.608 0 0.96 0 17.184 0 33.376-4.16 47.616-11.552l-0.576 0.256 11.744-6.272v48.96l-3.84 2.336c-14.592 7.808-31.936 12.384-50.336 12.384-1.76 0-3.488-0.032-5.216-0.128h0.256c-46.56 0-77.856-25.344-77.856-63.104 0-38.944 28.192-52.064 59.552-63.104l15.136-5.376c23.2-7.808 27.104-13.152 27.104-22.144 0-15.040-17.408-18.176-32-18.176-0.064 0-0.128 0-0.192 0-22.080 0-42.656 6.4-59.968 17.44l0.448-0.256-12.288 7.712v-50.368l3.328-2.368c18.816-11.424 41.568-18.176 65.888-18.176 1.152 0 2.336 0 3.488 0.032h-0.16c48.128 0 79.232 25.6 79.232 65.28 0 39.168-28.256 54.272-58.752 64.8zM907.136 785.216l-50.112-39.744c64.384-80.352 103.328-183.52 103.328-295.776 0-0.608 0-1.216 0-1.792v0.096c-0.128-115.008-40.576-220.576-107.936-303.328l0.704 0.864 49.632-40.384c75.648 92.768 121.504 212.416 121.6 342.784v0.032c0 0.608 0 1.312 0 2.016 0 127.232-44.16 244.16-117.984 336.288l0.832-1.056zM167.008 745.536l-50.112 39.744c-73.024-91.072-117.184-208-117.184-335.264 0-0.704 0-1.44 0-2.144v0.096c0.096-130.4 45.952-250.048 122.368-343.808l-0.768 0.992 49.632 40.384c-66.688 81.856-107.136 187.424-107.232 302.432v0.032c0 0.544 0 1.184 0 1.792 0 112.256 38.944 215.392 104.032 296.704l-0.736-0.928z" />
<glyph unicode="&#xe901;" glyph-name="airbag" d="M870.528 438.304c6.464 12.544 10.24 27.392 10.24 43.136 0 53.024-42.976 96-96 96-37.312 0-69.632-21.28-85.536-52.352l-0.256-0.544-99.456-197.76-269.888 115.072-222.656-285.376c-12.672-16.128-20.32-36.704-20.32-59.072 0-53.024 42.976-96.032 96.032-96.032 30.656 0 57.952 14.368 75.552 36.736l0.16 0.192 131.84 168.992 299.808-127.936 55.52 110.368 128.384-59.552 26.816 58.112-126.464 58.688zM659.84 161.92l-289.824 123.552-162.048-207.744c-6.048-7.36-15.168-12-25.376-12-7.392 0-14.208 2.432-19.68 6.56l0.096-0.064c-7.52 5.92-12.288 15.008-12.288 25.216 0 7.456 2.528 14.304 6.816 19.744l-0.064-0.064 192.384 246.624 252.096-107.552 85.472-39.488zM716.16 273.92l-58.112 26.848 98.080 195.072c5.536 10.496 16.352 17.504 28.832 17.504 5.152 0 10.048-1.216 14.368-3.36l-0.192 0.096c10.528-5.408 17.632-16.192 17.632-28.64 0-5.248-1.248-10.176-3.488-14.56l0.096 0.192zM416.352 480c114.88 0 208 93.12 208 208s-93.12 208-208 208c-114.88 0-208-93.12-208-208v0c0-114.88 93.12-208 208-208v0zM416.352 833.44c80.32 0 145.44-65.12 145.44-145.44s-65.12-145.44-145.44-145.44c-80.32 0-145.44 65.12-145.44 145.44v0c0.096 80.288 65.152 145.344 145.44 145.44v0zM831.232 863.936c0 0-0.032 0-0.032 0-71.712 0-129.888-58.144-129.888-129.888s58.144-129.888 129.888-129.888c71.712 0 129.888 58.144 129.888 129.888 0 0 0 0 0 0.032v0c-0.096 71.68-58.176 129.76-129.824 129.856v0zM831.232 668.192c0 0-0.032 0-0.032 0-36.384 0-65.888 29.504-65.888 65.888s29.504 65.888 65.888 65.888c36.384 0 65.856-29.472 65.888-65.856v0c-0.032-36.384-29.472-65.856-65.824-65.92v0z" />
<glyph unicode="&#xe902;" glyph-name="alarm-level1" d="M704 448c0-106.048-85.952-192-192-192s-192 85.952-192 192c0 106.048 85.952 192 192 192s192-85.952 192-192z" />
<glyph unicode="&#xe903;" glyph-name="alarm-level2" d="M768.512 448c0-141.376-114.624-256-256-256s-256 114.624-256 256c0 141.376 114.624 256 256 256s256-114.624 256-256z" />
<glyph unicode="&#xe904;" glyph-name="alarm-level3" d="M832 448c0-176.736-143.264-320-320-320s-320 143.264-320 320c0 176.736 143.264 320 320 320s320-143.264 320-320z" />
<glyph unicode="&#xe905;" glyph-name="alarm-level4" d="M899.264 448c0-212.064-171.936-384-384-384s-384 171.936-384 384c0 212.064 171.936 384 384 384s384-171.936 384-384z" />
<glyph unicode="&#xe906;" glyph-name="alarm-level5" d="M960.16 448c0-247.52-200.64-448.16-448.16-448.16s-448.16 200.64-448.16 448.16c0 247.52 200.64 448.16 448.16 448.16s448.16-200.64 448.16-448.16z" />
<glyph unicode="&#xe907;" glyph-name="alarm-level6" d="M1024 448c0-282.784-229.216-512-512-512s-512 229.216-512 512c0 282.784 229.216 512 512 512s512-229.216 512-512z" />
<glyph unicode="&#xe908;" glyph-name="antenna" d="M480.256-66.906h64v1026.88h-64zM636.883 806.067c21.056-17.6 34.752-43.776 34.752-73.28 0-30.080-14.144-56.576-35.84-74.176l45.248-45.248c33.152 29.312 54.592 71.68 54.592 119.424 0 47.168-20.928 89.216-53.504 118.528l-45.248-45.248zM781.133 920.781l-45.248-45.248c38.592-35.136 63.296-85.312 63.296-141.44 0-56.704-25.152-107.2-64.384-142.4l45.248-45.248c50.752 46.784 83.136 113.28 83.136 187.648 0 73.792-31.872 139.904-82.048 186.688zM341.037 851.309c-32.576-29.312-53.44-71.36-53.44-118.528 0-47.744 21.376-90.112 54.592-119.424l45.184 45.248c-21.632 17.6-35.776 44.096-35.776 74.176 0 29.504 13.632 55.68 34.688 73.28l-45.248 45.248zM287.283 875.533l-45.248 45.248c-50.176-46.784-82.048-112.896-82.048-186.688 0-74.368 32.384-140.864 83.136-187.648l45.248 45.248c-39.232 35.2-64.384 85.696-64.384 142.4 0 56.128 24.704 106.304 63.296 141.44z" />
<glyph unicode="&#xe909;" glyph-name="app-launcher" d="M194.080 768.928h128v-128h-128v128zM446.432 768.928h128v-128h-128v128zM701.92 768.928h128v-128h-128v128zM194.080 512h128v-128h-128v128zM446.432 512h128v-128h-128v128zM701.92 512h128v-128h-128v128zM701.92 255.072h128v-128h-128v128zM194.080 255.072h128v-128h-128v128zM446.432 255.072h128v-128h-128v128z" />
<glyph unicode="&#xe90a;" glyph-name="arrow-down" d="M808.256 470.272l-265.344-279.168v640.256h-63.872v-639.936l-263.168 278.784-46.4-43.84 341.44-361.728 343.616 361.664-46.272 43.968z" />
<glyph unicode="&#xe90b;" glyph-name="arrow-left" d="M895.36 480.96h-639.936l278.784 263.104-43.84 46.528-361.728-341.504 361.664-343.68 43.968 46.272-279.232 265.408h640.32v63.872z" />
<glyph unicode="&#xe90c;" glyph-name="arrow-right" d="M533.696 790.592l-44.032-46.272 279.296-265.408h-640.32v-63.872h639.936l-278.848-263.104 43.904-46.528 361.728 341.504-361.664 343.68z" />
<glyph unicode="&#xe90d;" glyph-name="arrow-rotate-horizontal" d="M567.68 960c-149.12 0-268.16-192-285.44-448l-69.12 69.12-44.8-45.44 151.68-151.68 149.76 151.68-45.44 45.44-78.72-78.080c14.080 217.6 110.080 392.96 222.080 392.96 121.6 0 224-205.44 224-448s-102.4-448-224-448c-85.12 0-166.4 105.6-203.52 263.040l-64-14.080c46.080-190.080 147.84-312.96 267.52-312.96 161.92 0 288 224.64 288 512s-126.080 512-288 512z" />
<glyph unicode="&#xe90e;" glyph-name="arrow-rotate-vertical" d="M512 792.32c-287.36 0-512-128-512-288 0-149.76 192-269.44 448-286.080l-64-69.12 45.44-45.44 146.56 152.32-149.76 149.76-42.24-45.44 74.88-78.72c-218.88 14.080-394.88 110.080-394.88 222.72s205.44 224 448 224 448-103.040 448-224c0-85.12-105.6-167.040-263.040-203.52l14.080-64c190.080 45.44 312.96 147.2 312.96 267.52 0 161.28-224.64 288-512 288z" />
<glyph unicode="&#xe90f;" glyph-name="arrow-up" d="M854.528 469.632l-341.44 361.728-343.616-361.664 46.272-43.968 265.344 279.168v-640.256h63.872v639.936l263.168-278.784 46.4 43.84z" />
<glyph unicode="&#xe910;" glyph-name="attach" d="M512-64c-2.72-0.096-5.888-0.16-9.056-0.16-136.448 0-247.040 110.592-247.040 247.040 0 2.56 0.032 5.12 0.128 7.68v-0.384 578.496c-0.128 2.496-0.192 5.44-0.192 8.384 0 101.056 81.92 182.944 182.944 182.944s182.944-81.92 182.944-182.944c0-2.944-0.064-5.888-0.192-8.8v0.416-565.92c0.16-2.176 0.224-4.704 0.224-7.264 0-62.208-50.432-112.64-112.64-112.64s-112.64 50.432-112.64 112.64c0 2.56 0.096 5.088 0.256 7.584l-0.032-0.352v565.92h64v-565.92c0-42.368 26.080-57.44 48.416-57.44s48.416 15.072 48.416 57.44v565.92c0.352 3.328 0.544 7.2 0.544 11.136 0 64.192-52.032 116.224-116.224 116.224-0.832 0-1.632 0-2.464-0.032h0.128c-0.512 0-1.088 0-1.696 0-65.248 0-118.176-52.896-118.176-118.176 0-3.232 0.128-6.4 0.384-9.568l-0.032 0.416v-578.496c-0.096-2.144-0.128-4.672-0.128-7.2 0-101.184 82.016-183.232 183.232-183.232 3.136 0 6.272 0.064 9.344 0.224l-0.448-0.032c2.656-0.128 5.792-0.224 8.928-0.224 101.184 0 183.232 82.016 183.232 183.232 0 2.528-0.064 5.056-0.16 7.552v-0.352 450.048h64v-450.048c0.064-2.176 0.096-4.736 0.096-7.328 0-136.448-110.592-247.040-247.040-247.040-3.2 0-6.368 0.064-9.536 0.192h0.448z" />
<glyph unicode="&#xe911;" glyph-name="automotive-battery" d="M255.936 447.968h192v-64h-192v64zM768.32 448.064h-64v64h-64v-64h-64v-64h64v-64h64v64h64v64zM959.904 704h-223.616v64h-128v-64h-192.384v64h-128v-64h-224v-576h896.16zM127.904 192v448h768l0.128-448z" />
<glyph unicode="&#xe912;" glyph-name="avatar" d="M702.144 192.672h-384c-141.312-0.16-255.84-114.688-256-256v0h64c0.128 105.984 86.016 191.872 192 192h384c105.984-0.128 191.872-86.016 192-192v0h64c-0.16 141.312-114.688 255.84-256 256v0zM493.536 256.672h33.28c132.128 0.16 239.2 107.232 239.36 239.36v161.248c-0.16 132.128-107.232 239.2-239.36 239.36h-33.28c-132.128-0.16-239.2-107.232-239.36-239.36v-161.28c0.192-132.128 107.232-239.168 239.36-239.328v0zM318.176 657.312c0.128 96.8 78.56 175.232 175.36 175.36h33.28c96.8-0.128 175.232-78.56 175.36-175.36v-161.28c-0.128-96.8-78.56-175.232-175.36-175.36h-33.28c-96.8 0.128-175.232 78.56-175.36 175.36v0z" />
<glyph unicode="&#xe913;" glyph-name="battery-charging" d="M1024 604.096h-128v132.736h-896v-577.696h896v132.736h128zM832 223.168h-768v449.696h768v-449.696zM960 355.904h-64v184.192h64zM384 345.536l-149.696 137.984 43.392 47.040 106.304-98.048 128 118.016 149.696-137.984-43.392-47.040-106.304 98.048-128-118.016z" />
<glyph unicode="&#xe914;" glyph-name="battery-empty" d="M1024 604.096h-128v132.736h-896v-577.696h896v132.736h128zM832 223.168h-768v449.696h768v-449.696zM960 355.904h-64v184.192h64z" />
<glyph unicode="&#xe915;" glyph-name="battery-full" d="M1024 604.096h-128v132.736h-896v-577.696h896v132.736h128zM832 223.168h-768v449.696h768v-449.696zM960 355.904h-64v184.192h64zM120.128 608h655.744v-320h-655.744v320z" />
<glyph unicode="&#xe916;" glyph-name="blog" d="M128.608 896v-194.304h-66.88v-64h66.88v-165.44h-66.88v-64h66.88v-158.72h-66.88v-64h66.88v-185.536h833.664v896zM898.272 64h-705.664v121.568h64v64h-64v158.688h64v64h-64v165.44h64v64h-64v130.304h705.664zM714.304 369.408c0.032 0.992 0.064 2.144 0.064 3.296 0 34.944-17.12 65.888-43.424 84.896l-0.32 0.224c20.416 17.888 33.216 44 33.216 73.088 0 0.864 0 1.728-0.032 2.592v-0.128c0.064 1.248 0.096 2.72 0.096 4.16 0 58.4-47.36 105.76-105.76 105.76-2.816 0-5.632-0.096-8.384-0.32l0.352 0.032h-148.736v-389.92h153.248c2.016-0.128 4.384-0.192 6.784-0.192 62.4 0 112.96 50.592 112.96 112.96 0 1.28-0.032 2.528-0.064 3.776v-0.192zM508.448 575.648h80.64c1.216 0.128 2.592 0.192 4 0.192 24.352 0 44.096-19.744 44.096-44.096s-19.744-44.096-44.096-44.096c-1.408 0-2.816 0.064-4.192 0.192h-80.448zM508.448 320.288v100.352h85.152c0.992 0.064 2.144 0.096 3.296 0.096 27.776 0 50.304-22.528 50.304-50.304s-22.528-50.304-50.304-50.304c-1.152 0-2.304 0.032-3.456 0.128h0.16z" />
<glyph unicode="&#xe917;" glyph-name="bluetooth" d="M447.616 895.936v-369.216l-205.984 140.096-36-52.864 241.984-164.576v-0.928l-252.224-165.312 35.072-53.504 217.152 142.336v-372.768l330.464 255.488-217.28 193.12 229.312 194.24zM677.92 258.048l-166.272-128.512v276.32zM511.616 489.984v278.816l175.552-130.112z" />
<glyph unicode="&#xe918;" glyph-name="bookmark-solid" d="M192.192 896v-896l319.36 192 320.256-192v896h-639.616z" />
<glyph unicode="&#xe919;" glyph-name="bookmark" d="M767.84 832v-719.040l-256.32 153.664-255.328-153.504v718.848h511.648zM831.84 896h-639.68v-896l319.36 192 320.288-192v896z" />
<glyph unicode="&#xe91a;" glyph-name="brakes" d="M512.256 768c176.736 0 320-143.264 320-320s-143.264-320-320-320c-176.736 0-320 143.264-320 320v0c0.224 176.64 143.36 319.776 319.968 320h0.032zM512.256 832c-212.064 0-384-171.936-384-384s171.936-384 384-384c212.064 0 384 171.936 384 384v0c0 212.064-171.936 384-384 384v0zM902.688 105.152l-49.632 40.384c66.688 81.856 107.136 187.424 107.264 302.4v0.032c0 0.512 0 1.12 0 1.728 0 112.256-38.944 215.424-104.032 296.736l0.736-0.928 50.112 39.744c73.024-91.072 117.184-208 117.184-335.264 0-0.704 0-1.408 0-2.144v0.096c-0.128-130.368-45.984-250.016-122.4-343.776l0.768 0.992zM121.312 105.152c-75.648 92.768-121.504 212.416-121.6 342.784v0.032c0 0.608 0 1.344 0 2.080 0 127.232 44.16 244.16 117.984 336.288l-0.832-1.056 50.112-39.744c-64.384-80.352-103.328-183.52-103.328-295.744 0-0.64 0-1.28 0-1.952v0.096c0.096-115.040 40.544-220.576 107.936-303.296l-0.704 0.864zM556.768 295.552c0-24.16-19.936-43.744-44.544-43.744s-44.544 19.584-44.544 43.744c0 24.16 19.936 43.744 44.544 43.744s44.544-19.584 44.544-43.744zM480.256 619.648h64v-213.472h-64v213.472z" />
<glyph unicode="&#xe91b;" glyph-name="bug" d="M960 416v64h-161.28c-1.824 26.4-5.664 52.096-11.712 76.608l128.64 128.64-45.248 45.248-106.24-106.24c-49.12 112.704-143.68 189.248-252.16 189.248-105.824 0-198.272-73.024-248.32-181.248l-98.272 98.24-45.248-45.248 119.488-119.456c-7.36-27.328-12.32-56-14.368-85.792h-161.28v-64h161.28c2.048-29.792 7.008-58.464 14.368-85.792l-119.488-119.456 45.248-45.248 98.272 98.24c50.048-108.224 142.496-181.248 248.32-181.248 108.48 0 203.040 76.544 252.16 189.248l106.24-106.24 45.248 45.248-128.64 128.64c6.016 24.512 9.888 50.208 11.712 76.608h161.28zM512 749.504c80.896 0 151.296-58.592 190.656-145.376h-381.344c39.36 86.784 109.76 145.376 190.656 145.376zM512 146.496c-123.488 0-224 135.264-224 301.504 0 32.32 4.8 62.912 11.84 92.128h424.352c7.040-29.216 11.84-59.808 11.84-92.128 0-166.24-100.512-301.504-224-301.504z" />
<glyph unicode="&#xe91c;" glyph-name="calendar" d="M192.416 444.864h128v-64h-128v64zM448.416 444.864h128v-64h-128v64zM704.416 444.864h128v-64h-128v64zM192.416 252.864h128v-64h-128v64zM448.416 252.864h128v-64h-128v64zM704.416 252.864h128v-64h-128v64zM832.48 830.56v66.88h-64v-66.88h-515.392v66.88h-64v-66.88h-189.056v-832h1024v832zM960 62.56h-896v510.304h896zM960 636.864h-896v129.696h125.056v-64h64v64h515.392v-64h64v64h127.52z" />
<glyph unicode="&#xe91d;" glyph-name="camera-cctv" d="M214.848 868.256l-159.52-476.896 126.72-42.24-47.584-92.576h-134.464v-207.936h260.992l120.576 234.080 276.288-92.064 20.576 61.792 170.656-56.864 74.976 224.992-151.84 50.624 224.288 136.64zM221.984 112.608h-157.984v79.936h109.472l69.984 136.128 76.64-25.536zM843.296 380.128l-34.56-103.808-110.080 36.672 34.56 103.808zM692.672 497.632l-75.296-226.080-481.056 160.32 119.040 355.456 590.080-196.64zM301.472 608.352l20.256 60.768 153.632-51.2-20.256-60.768-153.632 51.2z" />
<glyph unicode="&#xe91e;" glyph-name="camera-classic" d="M150.432 596.672h153.632v-64h-153.632v64zM768.288 750.816h-772v-570.368h772v133.888l257.632-126.304v555.264l-257.632-126.304zM704.288 585.568v-341.12h-644v442.368h644zM961.92 640.64v-350.016l-193.632 94.944v160.128z" />
<glyph unicode="&#xe91f;" glyph-name="camera-photo" d="M664.448 798.528l64-128h231.552v-573.056h-896v573.056h232.576l17.28 36.704 43.040 91.296h307.52zM704 862.528h-387.648l-60.352-128h-256v-701.056h1024v701.056h-256l-64 128zM512 584.32c93.76 0 169.76-76 169.76-169.76s-76-169.76-169.76-169.76c-93.76 0-169.76 76-169.76 169.728v0c0.096 93.728 76.032 169.664 169.76 169.792v0zM512 648.32c-129.088 0-233.76-104.672-233.76-233.76s104.672-233.76 233.76-233.76c129.088 0 233.76 104.672 233.76 233.76v0c0 129.088-104.672 233.76-233.76 233.76v0z" />
<glyph unicode="&#xe920;" glyph-name="check-small" d="M790.656 616.96l-47.808 42.368-314.24-354.88-148.8 148.8-45.184-45.12 196.8-196.8 359.232 405.632z" />
<glyph unicode="&#xe921;" glyph-name="check" d="M924.672 712.96l-47.808 42.368-484.224-546.816-236.096 235.968-45.184-45.12 284.096-283.968 529.216 597.568z" />
<glyph unicode="&#xe922;" glyph-name="chevron-down" d="M790.592 564.736l-45.184 45.12-233.408-233.344-233.408 233.344-45.184-45.12 278.592-278.592 278.592 278.592z" />
<glyph unicode="&#xe923;" glyph-name="chevron-left" d="M628.736 169.408l45.12 45.184-233.344 233.408 233.344 233.408-45.12 45.184-278.592-278.592 278.592-278.592z" />
<glyph unicode="&#xe924;" glyph-name="chevron-right" d="M395.264 726.592l-45.12-45.184 233.344-233.408-233.344-233.408 45.12-45.184 278.592 278.592-278.592 278.592z" />
<glyph unicode="&#xe925;" glyph-name="chevron-up" d="M233.408 331.264l45.184-45.12 233.408 233.344 233.408-233.344 45.184 45.12-278.592 278.592-278.592-278.592z" />
<glyph unicode="&#xe926;" glyph-name="circle-dashed" d="M112.672 249.6q-6.080 12-11.424 24.256l-58.624-25.76q6.080-13.792 12.992-27.52c36.192-70.656 85.856-129.632 146.112-175.392l1.248-0.896 38.56 51.136c-53.76 40.832-97.216 92.384-127.68 151.712l-1.152 2.496zM63.936 452.16c0.128 76.672 19.328 148.832 53.12 212.032l-1.184-2.432-56.608 29.888c-37.248-69.44-59.2-151.904-59.328-239.456v-0.032l0.16-13.056 64 1.504zM844.8 841.664c-64.224 55.008-143.136 94.72-230.048 112.48l-3.328 0.576-12.512-62.72c78.976-16.064 148.096-50.816 204.928-99.456l-0.608 0.512zM416.032 955.456c-51.168-9.888-96.736-26.016-138.848-47.84l2.848 1.344c-37.376-19.2-69.632-40.8-99.040-65.632l0.768 0.64 41.248-48.992c56.448 47.776 125.792 82.112 202.048 97.152l2.848 0.48zM967.84 685.6l-29.92-11.808-26.624-18.176c30.72-58.72 48.736-128.288 48.736-202.048 0-0.192 0-0.416 0-0.608v0.032c0-6.4-0.16-12.736-0.416-19.2l63.936-2.624c0.32 7.328 0.48 14.56 0.48 21.824 0 0.128 0 0.256 0 0.416 0 84.8-20.8 164.768-57.536 235.040l1.344-2.784zM513.088 4.544h-0.704c-41.696 0.032-82.080 5.696-120.384 16.32l3.168-0.736-16.672-61.76c40.128-11.296 86.208-17.792 133.824-17.824h0.832c0.032 0 0.064 0 0.096 0 44.288 0 87.264 5.728 128.192 16.48l-3.52-0.768-15.808 62.016c-32.736-8.672-70.304-13.664-109.056-13.696v0zM776.896 91.232l37.824-51.616c70.24 51.936 125.888 119.712 162.176 198.272l1.312 3.168-58.304 26.368c-32.896-71.488-81.568-130.784-141.792-175.328l-1.216-0.864z" />
<glyph unicode="&#xe927;" glyph-name="circle" d="M757.088 897.344c-70.816 39.36-155.296 62.528-245.184 62.528-282.784 0-512-229.216-512-512s229.216-512 512-512c192.96 0 360.96 106.72 448.256 264.384l1.344 2.624c39.872 70.944 63.36 155.744 63.36 246.016 0 192.8-107.104 360.608-265.088 447.136l-2.656 1.344zM905.28 233.504c-77.536-140.16-224.48-233.504-393.248-233.504-247.36 0-447.904 200.544-447.904 447.904s200.544 447.904 447.904 447.904c202.304 0 373.28-134.112 428.864-318.272l0.832-3.168c11.552-37.856 18.208-81.376 18.208-126.432 0-78.624-20.256-152.512-55.808-216.736l1.184 2.304z" />
<glyph unicode="&#xe928;" glyph-name="cloud" d="M776.96 128h-546.56c-1.536-0.043-3.328-0.043-5.163-0.043-124.416 0-225.28 100.864-225.28 225.28 0 1.579 0 3.2 0.043 4.779v-0.256c-0.341 4.48-0.512 9.685-0.512 14.933 0 67.84 30.933 128.427 79.488 168.448l0.384 0.299c40.96 29.099 92.032 46.507 147.157 46.507 12.203 0 24.235-0.853 35.968-2.517l-1.365 0.171c29.781 106.155 125.696 182.656 239.488 182.656 4.011 0 7.979-0.085 11.947-0.299h-0.555c2.773 0.128 6.059 0.171 9.301 0.171 66.901 0 127.445-27.221 171.136-71.211v0c42.24-46.549 71.040-106.027 79.829-171.819l0.171-1.621c12.032 2.091 25.856 3.285 39.979 3.285 55.637 0 106.965-18.56 148.139-49.792l-0.597 0.427c39.253-33.536 64-83.115 64-138.453 0-0.171 0-0.299 0-0.469v0.043c0-78.72-32-210.56-247.040-210.56zM227.2 523.52c-1.28 0.043-2.773 0.043-4.309 0.043-39.168 0-75.435-12.501-105.045-33.707l0.555 0.384c-33.707-29.056-54.955-71.808-54.955-119.509 0-4.565 0.213-9.088 0.555-13.568l-0.043 0.597c-0.043-1.365-0.085-2.944-0.085-4.565 0-89.088 72.192-161.28 161.28-161.28 1.835 0 3.627 0.043 5.461 0.085h546.304c122.88 0 183.040 48 183.040 146.56 0 0.597 0 1.323 0 2.048 0 34.987-15.573 66.304-40.192 87.424l-0.171 0.128c-32.213 21.973-72.021 35.115-114.859 35.115-19.712 0-38.784-2.773-56.832-7.936l1.451 0.341-38.4-7.040v39.040c-1.664 63.232-25.6 120.619-64.256 164.779l0.256-0.299c-32.299 32.171-76.843 52.053-126.037 52.053-3.157 0-6.315-0.085-9.429-0.256h0.427c-2.731 0.128-5.888 0.213-9.088 0.213-93.739 0-171.179-70.016-182.827-160.597l-0.085-0.939-5.76-33.92-33.92 8.32c-14.805 4.096-31.787 6.443-49.323 6.443-1.323 0-2.688 0-4.011-0.043h0.213z" />
<glyph unicode="&#xe929;" glyph-name="code" d="M393.056 206.976l163.648 511.872 60.992-19.488-163.648-511.872-60.992 19.488zM739.008 174.080l-44.352 46.144 236.992 227.776-236.992 227.776 44.352 46.144 284.992-273.92-284.992-273.92zM284.992 174.080l-284.992 273.92 284.992 273.92 44.352-46.144-236.992-227.776 236.992-227.776-44.352-46.144z" />
<glyph unicode="&#xe92a;" glyph-name="copy" d="M746.432 960h-425.792v-172.352h-256v-851.648h638.72v172.352h256v638.528zM639.36 0h-510.72v723.648h192v-615.264h318.72zM895.36 172.352h-510.72v723.648h335.296l175.424-175.584z" />
<glyph unicode="&#xe92b;" glyph-name="cpu" d="M832 767.936v-640h-640v640h640zM768 959.968h-64v-128.032h-160.064v128.032h-64v-128.032h-159.936v128.032h-64v-128.032h-128v-127.936h-128v-64h128v-160h-128v-64h128v-160.064h-128v-64h128v-128.032h128v-128h64v128h159.936v-128h64v128h160.064v-128h64v128h128v128.064h128.032v64h-128.032v159.744h128.032v64h-128.032v160.288h128.032v64h-128.032v127.936h-128v128.032zM704 639.936v-384.032h-384v384.032h384zM768 703.936h-512v-512.032h512v512.032z" />
<glyph unicode="&#xe92c;" glyph-name="creditcard" d="M926.4 800h-828.8c-53.12 0-96.16-43.040-96.16-96.16v-511.68c0-53.12 43.072-96.16 96.16-96.16h828.8c53.12 0 96.16 43.072 96.16 96.16 0 0 0 0 0 0v0 511.648c0 53.12-43.072 96.16-96.16 96.16v0zM958.56 192.16c-0.032-17.76-14.4-32.16-32.16-32.192h-828.8c-17.76 0.032-32.16 14.432-32.16 32.192v388.608h893.152zM958.56 644.736h-893.152v59.104c0.032 17.76 14.432 32.128 32.16 32.16h828.8c17.76-0.032 32.16-14.4 32.16-32.16v0zM151.392 323.648h128.032v-64h-128.032v64z" />
<glyph unicode="&#xe92d;" glyph-name="crop" d="M1023.904 200.736h-188v527.072l146.72 145.92-45.312 44.928-147.648-146.816h-542.016v188.16h-64v-188.16h-183.776v-63.552h183.776v-584.128h588.224v-188.16h64v201.216h188zM247.68 232.768v475.52h478.080zM771.904 664.128v-476.448h-479.008z" />
<glyph unicode="&#xe92e;" glyph-name="cross-small" d="M310.592 201.216l201.728 201.664 201.024-201.728 45.312 45.12-201.152 201.792 200.512 200.576-45.248 45.248-200.448-200.448-200.768 201.408-45.312-45.12 200.896-201.536-201.792-201.728 45.248-45.248z" />
<glyph unicode="&#xe92f;" glyph-name="cross" d="M151.936 42.368l360.576 360.64 359.488-360.832 45.312 45.12-359.552 360.896 358.592 358.592-45.248 45.248-358.528-358.528-358.976 360.32-45.312-45.12 359.040-360.384-360.64-360.704 45.248-45.248z" />
<glyph unicode="&#xe930;" glyph-name="crown" d="M511.808 688.096l256.288-320 191.936 239.968 0.064-393.536h-896.096v393.568l192.032-240.032 255.776 320.032zM1023.936 790.528l-255.936-320-256.288 320-255.712-320-256 320v-640h1024.032l-0.096 640z" />
<glyph unicode="&#xe931;" glyph-name="dashboard" d="M530.496 561.024c-5.248 0.832-11.328 1.344-17.472 1.344-20.416 0-39.616-5.312-56.288-14.592l0.576 0.288-116.96 116.992-46.24-46.24 116.448-116.48c-9.28-16.352-14.72-35.936-14.72-56.768 0-64.544 52.32-116.864 116.864-116.864s116.864 52.32 116.864 116.864c0 58.272-42.656 106.56-98.432 115.424l-0.672 0.096zM543.2 403.456c-8.48-6.304-19.136-10.080-30.688-10.080-28.576 0-51.744 23.168-51.744 51.744 0 2.816 0.224 5.568 0.672 8.288l-0.032-0.288c4 24.96 25.312 43.84 51.072 43.936v0c0.096 0 0.192 0 0.288 0 2.72 0 5.376-0.224 7.968-0.672l-0.288 0.032c13.984-2.144 25.92-9.696 33.76-20.416l0.096-0.16v-0.064c6.24-8.448 9.984-19.072 9.984-30.56 0-17.056-8.256-32.192-20.96-41.6l-0.128-0.096zM512.736 960c0 0 0 0 0 0-284.32 0-514.816-230.496-514.816-514.816 0-154.784 68.32-293.6 176.416-388l0.608-0.512 21.056 24.192 71.904 71.904-46.24 46.208-48.992-48.96c-61.472 70.528-101.44 161.184-108.896 260.928l-0.096 1.504h69.088v65.408h-69.184c7.456 100.896 47.2 191.296 108.864 262.144l-0.448-0.544 48.864-48.864 46.24 46.24-48.864 48.864c70.272 61.248 160.64 101.088 260.032 108.512l1.504 0.096v-69.312h65.408v69.344c100.96-7.36 191.456-47.136 262.368-108.832l-0.544 0.448-49.056-49.056 46.24-46.208 49.088 49.056c61.312-70.304 101.184-160.768 108.576-260.288l0.096-1.472h-69.6v-65.408h69.504c-7.52-100.736-47.104-191.008-108.448-261.92l0.48 0.576-49.6 49.632-46.24-46.24 72.864-72.864 20.992-23.936c107.968 94.848 175.744 233.216 175.744 387.392 0 284.32-230.496 514.816-514.816 514.816 0 0 0 0 0 0v0z" />
<glyph unicode="&#xe932;" glyph-name="dial" d="M874.304 176.864c-11.584 11.552-27.552 18.688-45.216 18.688-35.36 0-64-28.64-64-64s28.64-64 64-64c17.696 0 33.696 7.168 45.312 18.784v0c11.552 11.584 18.688 27.552 18.688 45.216 0 17.696-7.168 33.728-18.784 45.312v0zM391.168 568.544c-30.816-30.88-49.856-73.472-49.856-120.544 0-94.272 76.416-170.656 170.656-170.656s170.656 76.416 170.656 170.656c0 47.2-19.168 89.92-50.112 120.8v0c-30.88 30.816-73.472 49.856-120.544 49.856-47.2 0-89.92-19.168-120.8-50.112v0zM642.816 818.72c28.16 7.136 48.64 32.224 48.64 62.144 0 35.36-28.64 64-64 64s-64-28.64-64-64c0-5.44 0.672-10.752 1.952-15.808l-0.096 0.448c7.136-28.16 32.224-48.64 62.144-48.64 5.44 0 10.752 0.672 15.808 1.952l-0.448-0.096zM859.328 709.088c19.872 11.104 33.088 32.032 33.088 56.032 0 35.36-28.64 64-64 64s-64-28.64-64-64c0-11.328 2.944-22.016 8.128-31.232l-0.16 0.32c11.136-19.872 32.032-33.088 56.032-33.088 11.328 0 21.984 2.944 31.232 8.128l-0.32-0.16zM412.192 818.816c27.52 7.584 47.36 32.384 47.36 61.792 0 35.36-28.64 64-64 64s-64-28.64-64-64c0-5.92 0.8-11.616 2.304-17.056l-0.096 0.448c7.584-27.52 32.384-47.392 61.792-47.392 5.92 0 11.648 0.8 17.088 2.304l-0.448-0.096zM141.184 348.224c-7.584 27.52-32.384 47.36-61.792 47.36-35.36 0-64-28.64-64-64s28.64-64 64-64c5.92 0 11.648 0.8 17.088 2.304l-0.448-0.096c27.52 7.584 47.392 32.384 47.392 61.792 0 5.92-0.8 11.648-2.304 17.088l0.096-0.448zM111.2 508.096c19.232 11.264 31.936 31.84 31.936 55.392 0 35.36-28.64 64-64 64s-64-28.64-64-64c0-11.808 3.2-22.88 8.768-32.352l-0.16 0.288c11.264-19.232 31.84-31.936 55.392-31.936 11.808 0 22.88 3.2 32.352 8.768l-0.288-0.16zM150.24 176.096c-11.552-11.584-18.688-27.552-18.688-45.216 0-35.36 28.64-64 64-64s64 28.64 64 64c0 17.696-7.168 33.728-18.784 45.312v0c-11.584 11.552-27.552 18.688-45.216 18.688-17.696 0-33.728-7.168-45.312-18.784v0zM240.16 719.232c11.552 11.584 18.688 27.552 18.688 45.216 0 35.36-28.64 64-64 64s-64-28.64-64-64c0-17.696 7.168-33.728 18.784-45.312v0c11.584-11.552 27.552-18.688 45.216-18.688 17.696 0 33.728 7.168 45.312 18.784v0zM412.992 76.992c-4.96 1.376-10.624 2.176-16.48 2.176-35.36 0-64-28.64-64-64s28.64-64 64-64c29.472 0 54.304 19.936 61.728 47.040l0.096 0.448c1.376 4.96 2.176 10.624 2.176 16.512 0 29.472-19.936 54.304-47.072 61.728l-0.448 0.096zM611.776 77.184c-27.52-7.584-47.36-32.384-47.36-61.792 0-35.36 28.64-64 64-64s64 28.64 64 64c0 5.92-0.8 11.648-2.304 17.088l0.096-0.448c-7.584 27.488-32.384 47.36-61.792 47.36-5.92 0-11.648-0.8-17.088-2.304l0.448 0.096z" />
<glyph unicode="&#xe933;" glyph-name="diamond" d="M757.76 828.8h-487.68l-237.44-289.28 479.36-475.52 479.36 472.32zM377.6 576l92.16 192h84.48l92.16-192zM648.96 512l-136.96-320-136.96 320zM305.28 512l112.64-259.84-263.68 259.84zM718.72 512h151.68l-263.68-261.76zM881.28 576h-163.2l-92.8 192h101.76zM300.8 768h97.92l-92.16-192h-162.56z" />
<glyph unicode="&#xe934;" glyph-name="document" d="M896 703.776l-256 256.224h-512v-1024h768zM832 0h-640v896h421.472l218.528-218.72zM261.344 705.28h255.584v-63.904h-255.584v63.904zM261.344 513.6h447.232v-63.904h-447.232v63.904zM261.344 321.92h447.232v-63.904h-447.232v63.904z" />
<glyph unicode="&#xe935;" glyph-name="door" d="M192 960v-1024h640v1024zM768 0h-512v896h512zM316.8 448h136.96v-64h-136.96v64z" />
<glyph unicode="&#xe936;" glyph-name="download-save" d="M768.64 384v-64h190.976v-256.384h-895.232v256.384h192.192v64h-256.192v-384.384h1023.232v384.384h-254.976zM854.592 553.792l-45.184 45.12-265.472-265.408v562.88h-63.872v-562.88l-265.472 265.408-45.184-45.12 342.592-342.592 342.592 342.592z" />
<glyph unicode="&#xe937;" glyph-name="drag-handle" d="M414.624 777.856c0-35.36-28.64-64-64-64s-64 28.64-64 64c0 35.36 28.64 64 64 64s64-28.64 64-64zM414.624 448c0-35.36-28.64-64-64-64s-64 28.64-64 64c0 35.36 28.64 64 64 64s64-28.64 64-64zM414.624 118.144c0-35.36-28.64-64-64-64s-64 28.64-64 64c0 35.36 28.64 64 64 64s64-28.64 64-64zM737.376 777.856c0-35.36-28.64-64-64-64s-64 28.64-64 64c0 35.36 28.64 64 64 64s64-28.64 64-64zM737.376 448c0-35.36-28.64-64-64-64s-64 28.64-64 64c0 35.36 28.64 64 64 64s64-28.64 64-64zM737.376 118.144c0-35.36-28.64-64-64-64s-64 28.64-64 64c0 35.36 28.64 64 64 64s64-28.64 64-64z" />
<glyph unicode="&#xe938;" glyph-name="duplicate" d="M320.128 896.16v-256h-256.288v-640.512h640.32v256.16h256v640.352zM640.16 63.68h-512.32v512.48h192.288v-320.32h320.032zM896.16 319.84h-512.032v512.352h512.064z" />
<glyph unicode="&#xe939;" glyph-name="econ" d="M885.856 892.064c-8.832 25.696-26.912 46.272-50.176 58.112l-0.576 0.256c-13.888 6.176-30.080 9.76-47.104 9.76-17.856 0-34.784-3.936-49.984-11.040l0.736 0.32-517.408-172.48c-33.472-7.456-61.056-28.288-77.344-56.448l-0.32-0.576c-6.784-13.152-10.752-28.704-10.752-45.184 0-11.424 1.888-22.368 5.408-32.608l-0.224 0.704c8.832-25.696 26.912-46.272 50.176-58.112l0.576-0.256c13.888-6.176 30.080-9.792 47.136-9.792 17.856 0 34.784 3.936 49.952 11.008l-0.736-0.32 517.408 172.48c33.44 7.52 61.024 28.32 77.344 56.48l0.32 0.576c6.784 13.152 10.752 28.704 10.752 45.184 0 11.424-1.888 22.368-5.408 32.608l0.224-0.704zM885.856 572.672c-8.832 25.696-26.912 46.272-50.176 58.112l-0.576 0.256c-13.888 6.176-30.080 9.76-47.104 9.76-17.856 0-34.784-3.936-49.984-11.008l0.736 0.32-517.408-172.512c-33.472-7.456-61.056-28.288-77.344-56.48l-0.32-0.576c-6.784-13.152-10.752-28.704-10.752-45.184 0-11.424 1.888-22.368 5.408-32.608l-0.224 0.704c8.832-25.696 26.912-46.272 50.176-58.112l0.576-0.256c13.888-6.176 30.080-9.76 47.104-9.76 17.856 0 34.784 3.936 49.984 11.040l-0.736-0.32 517.408 172.48c33.44 7.52 61.024 28.32 77.344 56.48l0.32 0.576c6.784 13.152 10.752 28.704 10.752 45.184 0 11.424-1.92 22.4-5.408 32.64l0.224-0.704zM885.856 253.12c-8.832 25.696-26.912 46.272-50.176 58.112l-0.576 0.256c-13.888 6.176-30.080 9.76-47.104 9.76-17.856 0-34.784-3.936-49.984-11.040l0.736 0.32-517.408-172.48c-33.472-7.456-61.056-28.288-77.344-56.48l-0.32-0.576c-6.784-13.152-10.752-28.704-10.752-45.184 0-11.424 1.888-22.368 5.408-32.608l-0.224 0.704c8.832-25.696 26.912-46.272 50.176-58.112l0.576-0.256c13.888-6.176 30.080-9.76 47.104-9.76 17.856 0 34.784 3.936 49.984 11.040l-0.736-0.32 517.408 172.48c33.44 7.52 61.024 28.32 77.344 56.448l0.32 0.576c6.784 13.152 10.752 28.704 10.752 45.184 0 11.424-1.92 22.4-5.408 32.608l0.224-0.704z" />
<glyph unicode="&#xe93a;" glyph-name="edit" d="M940.416 638.944l-237.152 237.12-541.056-540.864-78.592-315.264 315.712 72.448zM170.88 105.696l49.088 196.736 483.264 483.136 146.848-146.88-483.2-488.064z" />
<glyph unicode="&#xe93b;" glyph-name="ellipsis" d="M288 448c0-53.019-42.981-96-96-96s-96 42.981-96 96c0 53.019 42.981 96 96 96s96-42.981 96-96zM608 448c0-53.019-42.981-96-96-96s-96 42.981-96 96c0 53.019 42.981 96 96 96s96-42.981 96-96zM928 448c0-53.019-42.981-96-96-96s-96 42.981-96 96c0 53.019 42.981 96 96 96s96-42.981 96-96z" />
<glyph unicode="&#xe93c;" glyph-name="email" d="M0.864 767.456v-638.912h1022.272v638.912zM904.192 703.456l-392.192-280.96-392.736 280.96zM64.864 703.456h0.128l-0.128-0.192zM959.136 192.544h-894.272v471.168l447.136-319.968 447.136 320.384z" />
<glyph unicode="&#xe93d;" glyph-name="engine" d="M896 576v-64h-128v128h-320v64h64v64h-192v-64h64v-64h-192v-192h-64v128h-64v-320h64v128h64v-192h256v-64h384v64h64v-64h64v448zM896 256h-128v-64h-256v64h-256v320h448v-128h192z" />
<glyph unicode="&#xe93e;" glyph-name="eraser" d="M590.688 128.064l341.6 342.048c16.992 17.088 27.488 40.64 27.488 66.656s-10.496 49.6-27.52 66.688v0l-265.408 265.76c-17.28 16.544-40.736 26.752-66.592 26.752s-49.344-10.208-66.624-26.784l0.032 0.032-442.144-442.688c-17.056-17.088-27.584-40.64-27.584-66.688s10.528-49.6 27.584-66.688l228.896-229.216h639.552v64.064zM578.912 823.936c5.536 5.28 13.056 8.544 21.312 8.544s15.808-3.264 21.344-8.544v0l265.408-265.76c5.472-5.472 8.832-13.024 8.832-21.376s-3.36-15.872-8.8-21.344v0l-198.272-198.56-308.128 308.544zM346.88 128.064l-210.144 210.464c-5.472 5.472-8.832 13.024-8.832 21.376s3.392 15.904 8.832 21.376v0l198.624 198.848 308.128-308.544-143.296-143.488z" />
<glyph unicode="&#xe93f;" glyph-name="eula" d="M493.44 457.984h-90.72c-76.128-0.096-137.792-61.76-137.92-137.856v0h64c0.064 40.8 33.12 73.824 73.888 73.856h90.72c40.8 0 73.888-33.056 73.92-73.856v0h64c-0.128 76.128-61.792 137.792-137.92 137.856v0zM448.096 499.2c63.712 0.064 115.36 51.712 115.456 115.424v47.68c0 63.776-51.712 115.456-115.456 115.456s-115.456-51.712-115.456-115.456v-47.68c0.096-63.712 51.744-115.328 115.456-115.424v0zM396.64 662.304c0 28.416 23.040 51.456 51.456 51.456s51.456-23.040 51.456-51.456v-47.68c0-28.416-23.040-51.456-51.456-51.456s-51.456 23.040-51.456 51.456v0zM640 959.232h-512v-1024h768v767.776zM832-0.768h-640v896h421.472l218.528-218.752z" />
<glyph unicode="&#xe940;" glyph-name="eye-solid" d="M512 784.64c-273.536 0-501.184-244.48-501.184-336.64s227.648-336.64 501.184-336.64c275.68 0 501.184 254.112 501.184 336.64s-225.504 336.64-501.184 336.64zM672.672 448c0-88.352-71.648-160-160-160s-160 71.648-160 160c0 88.352 71.648 160 160 160v0c88.32-0.128 159.872-71.68 160-160v0z" />
<glyph unicode="&#xe941;" glyph-name="eye" d="M512 111.36c275.68 0 501.184 254.112 501.184 336.64s-225.504 336.64-501.184 336.64c-273.536 0-501.184-244.48-501.184-336.64s227.648-336.64 501.184-336.64zM512 720.64c239.456 0 433.536-228.32 437.184-272.64-3.648-44.32-197.728-272.64-437.184-272.64-250.656 0-437.184 228.832-437.184 272.64s186.528 272.64 437.184 272.64zM512 246.016c111.552 0 201.984 90.432 201.984 201.984s-90.432 201.984-201.984 201.984c-111.552 0-201.984-90.432-201.984-201.984v0c0.128-111.488 90.496-201.856 201.984-201.984v0zM512 585.984c76.224 0 137.984-61.792 137.984-137.984s-61.792-137.984-137.984-137.984c-76.224 0-137.984 61.792-137.984 137.984v0c0.096 76.16 61.824 137.888 137.984 137.984v0z" />
<glyph unicode="&#xe942;" glyph-name="favorite-solid" d="M225.504 12.096l289.536 152.224 289.536-152.224-55.296 322.4 234.24 228.32-323.712 47.040-144.768 293.312-144.768-293.312-323.712-47.040 234.24-228.32z" />
<glyph unicode="&#xe943;" glyph-name="favorite" d="M225.504 12.096l289.536 152.224 289.536-152.224-55.296 322.4 234.24 228.32-323.712 47.040-144.768 293.312-144.768-293.312-323.712-47.040 234.24-228.32zM184.096 518.112l228.64 33.216 102.272 207.2 102.272-207.2 228.64-33.216-165.44-161.28 5.696-33.152 33.376-194.56-204.512 107.52-204.512-107.52 39.072 227.712-24.096 23.488z" />
<glyph unicode="&#xe944;" glyph-name="fika" d="M813.056 418.88h-108.32v92.064h-639.648v-346.464c0.128-91.36 74.144-165.408 165.536-165.504h308.8c65.024 0.224 121.152 37.984 147.904 92.704l0.416 0.96h125.312c81.696 5.088 146.048 72.576 146.048 155.136 0 2.816-0.064 5.6-0.224 8.384v-0.384c0.128 2.4 0.192 5.184 0.192 8 0 82.528-64.352 150.016-145.6 155.040l-0.448 0.032zM640.736 164.32c-0.064-55.936-45.408-101.248-101.344-101.312h-308.8c-56.032 0.064-101.44 45.472-101.536 101.472v282.464h511.648zM813.056 156.672h-109.056c0.128 2.56 0.768 5.024 0.768 7.616v190.56h108.32c46.4-5.024 82.176-44 82.176-91.296 0-2.72-0.128-5.44-0.352-8.096l0.032 0.352c0.224-2.336 0.32-5.056 0.32-7.808 0-47.328-35.808-86.272-81.792-91.296l-0.416-0.032zM357.856 709.888c36.896 42.72 59.36 98.784 59.36 160.096 0 9.504-0.544 18.912-1.6 28.16l0.096-1.12h-64c1.088-7.584 1.728-16.352 1.728-25.248 0-46.496-17.088-89.024-45.344-121.6l0.192 0.224c-35.040-39.968-56.416-92.672-56.416-150.368 0-8.096 0.416-16.096 1.248-24l-0.096 0.992h64c-0.864 6.368-1.344 13.728-1.344 21.216 0 42.88 15.968 82.048 42.304 111.84l-0.16-0.192zM549.856 709.888c36.896 42.72 59.36 98.784 59.36 160.096 0 9.504-0.544 18.912-1.6 28.16l0.096-1.12h-64c1.088-7.584 1.728-16.352 1.728-25.248 0-46.496-17.088-89.024-45.344-121.6l0.192 0.224c-35.040-39.968-56.416-92.672-56.416-150.368 0-8.096 0.416-16.096 1.248-24l-0.096 0.992h64c-0.864 6.368-1.344 13.728-1.344 21.216 0 42.88 15.968 82.048 42.304 111.84l-0.16-0.192z" />
<glyph unicode="&#xe945;" glyph-name="file" d="M896 703.008l-256 256.224h-512v-1024h768zM832-0.768h-640v896h421.472l218.528-218.752z" />
<glyph unicode="&#xe946;" glyph-name="filter" d="M101.376 915.936l290.624-452.128 0.384-483.744 240.064 239.936-0.416 243.84 290.592 452.096zM568.384 246.496l-112.128-112.064-0.256 348.256-237.376 369.28h586.752l-237.408-369.344z" />
<glyph unicode="&#xe947;" glyph-name="flag" d="M640 832v0c-128 0-128 64-256 64-69.419-1.664-135.168-15.403-195.925-39.125l3.925 1.365v101.76h-64v-1024h64v410.24c56.832 22.315 122.539 36.011 191.275 37.76h0.725c128 0 128-64 256-64 93.781 4.139 181.248 27.307 259.883 65.707l-3.883-1.707v512c-74.752-36.565-162.176-59.733-254.549-63.957l-1.451-0.043zM832 425.6c-56.576-23.637-122.155-38.656-190.848-41.557l-1.152-0.043c-1.365-0.043-2.987-0.043-4.608-0.043-35.285 0-68.352 9.515-96.811 26.155l0.896-0.512c-43.349 24.192-95.061 38.443-150.144 38.443-1.877 0-3.797 0-5.675-0.043h0.299c-69.163-1.408-134.955-13.696-196.437-35.285l4.437 1.365v376.32c56.576 23.808 122.155 38.827 190.933 41.557l1.067 0.043c1.664 0.043 3.669 0.085 5.632 0.085 34.731 0 67.243-9.557 95.061-26.155l-0.853 0.469c43.435-24.192 95.275-38.443 150.443-38.443 2.005 0 4.011 0 6.016 0.043h-0.299c69.163 1.493 134.955 13.781 196.437 35.285l-4.437-1.365z" />
<glyph unicode="&#xe948;" glyph-name="floor" d="M640.096 895.808h-576.096v-447.872h0.096v-448.128h896v896zM896.096 511.904h-192v126.4h-64v-190.4h256v-127.904h-320.096v-64h320v-192.064h-447.904v192.064h63.904v64h-127.904v-256.192h-256v384.096h127.552v64h-127.552v319.872h319.904v-319.872h-128.352v-64h192.352v383.872h128.096v-129.472h64v129.472h192z" />
<glyph unicode="&#xe949;" glyph-name="flow" d="M801.152 416h-186.368v64h186.368c0.928-0.032 1.984-0.032 3.072-0.032 84.672 0 153.568 67.648 155.552 151.84v0.192c-1.984 84.384-70.88 152.032-155.552 152.032-1.088 0-2.144 0-3.232-0.032h-577.28v64h577.44c0.896 0 1.952 0.032 3.040 0.032 120.032 0 217.568-96.288 219.584-215.84v-0.192c-2.016-119.744-99.584-216.032-219.584-216.032-1.056 0-2.112 0-3.2 0.032h0.16zM974.56 47.744h-751.648c-0.896 0-1.952-0.032-3.040-0.032-120.032 0-217.568 96.288-219.552 215.84v0.192c2.016 119.744 99.552 216.032 219.584 216.032 1.056 0 2.112 0 3.2-0.032h186.24v-64h-186.4c-0.896 0.032-1.984 0.032-3.040 0.032-84.672 0-153.568-67.648-155.552-151.84v-0.192c1.984-84.384 70.88-152.032 155.552-152.032 1.088 0 2.144 0 3.2 0.032h751.488zM512 304c-79.52 0-144 64.48-144 144s64.48 144 144 144c79.52 0 144-64.48 144-144v0c-0.096-79.488-64.512-143.904-144-144v0zM512 528c-44.192 0-80-35.808-80-80s35.808-80 80-80c44.192 0 80 35.808 80 80v0c-0.032 44.16-35.84 79.968-80 80v0zM144 896c44.192 0 80-35.808 80-80s-35.808-80-80-80c-44.192 0-80 35.808-80 80v0c0.064 44.16 35.84 79.936 80 80v0zM144 960c-79.52 0-144-64.48-144-144s64.48-144 144-144c79.52 0 144 64.48 144 144v0c0 79.52-64.48 144-144 144v0zM891.584-54.144l-45.504 44.992 88.128 89.024-88.064 88.64 45.376 45.12 132.8-133.632-132.736-134.144z" />
<glyph unicode="&#xe94a;" glyph-name="folder" d="M319.808 863.488l-319.808 2.304v-835.584h1024v704h-576zM960 94.208h-896v707.104l228.96-1.632 128.384-129.472h538.656z" />
<glyph unicode="&#xe94b;" glyph-name="fuel" d="M640.064 767.872h-320v-256h320zM576.064 575.872h-192v128h192zM854.72 790.432l-45.248-45.248 118.624-118.56v-338.752h-5.76l-64 320h-90.24v288h-576v-832h-64v-64h704v64h-64v480h37.792l64-320h122.24v429.248zM704.064 63.808h-448v768.064h448z" />
<glyph unicode="&#xe94c;" glyph-name="globe" d="M512 958.976c-280.96-2.368-507.84-230.688-507.84-511.968 0-281.12 226.56-509.312 507.072-511.968h0.256l0.384-0.064h0.224c282.752 0.032 511.968 229.248 511.968 512s-229.248 512-512 512c0 0-0.032 0-0.032 0v0zM384.416 478.976c1.184 61.632 6.656 120.992 16.096 178.976l-0.96-7.2c34.048-5.344 73.44-8.48 113.504-8.672h0.192c39.328 0.192 77.792 3.264 115.36 8.96l-4.384-0.544c8.48-50.72 13.92-109.984 15.072-170.304l0.032-1.216zM639.296 414.976c-1.184-61.248-6.56-120.224-15.904-177.856l0.96 7.168c-33.664 5.216-72.64 8.288-112.288 8.512h-0.192c-39.872-0.192-78.816-3.328-116.896-9.184l4.416 0.544c-8.384 50.528-13.792 109.536-14.944 169.6l-0.032 1.216zM513.28 706.080c-35.936 0.192-71.072 2.944-105.44 8.096l4-0.48c26.816 114.848 67.904 181.28 100.064 181.28s73.312-66.56 100.16-181.6c-29.536-4.448-63.776-7.104-98.56-7.264h-0.192zM617.792 881.824c77.952-19.424 145.312-57.056 199.84-108.224l-0.256 0.224c-40.704-20.224-88.096-37.152-137.664-48.384l-4.32-0.832c-12.128 59.232-32.064 111.84-59.040 159.968l1.44-2.784zM348.448 725.12c-53.536 12.096-100.576 29.12-144.736 51.072l3.68-1.664c54.048 50.496 121.024 87.84 195.424 106.528l3.072 0.672c-25.44-45.184-45.312-97.6-56.832-153.056l-0.608-3.552zM336.448 662.016c-8.96-54.080-14.752-117.312-16.032-181.664l-0.032-1.376h-254.72c6.816 94.304 41.984 179.264 96.96 247.648l-0.672-0.864c50.304-27.296 108.576-49.28 170.016-62.912l4.48-0.832zM320.384 414.976c1.312-65.376 7.040-128.288 16.928-189.824l-1.024 7.744c-66.176-14.624-124.672-36.544-178.848-65.472l3.744 1.824c-53.856 67.328-88.736 151.904-95.456 244.32l-0.096 1.44zM348.192 169.856c12.128-59.392 32.096-112.16 59.104-160.448l-1.44 2.784c-77.92 19.488-145.248 57.184-199.744 108.384l0.224-0.224c40.672 20.32 88 37.344 137.504 48.64l4.32 0.832zM411.552 181.248c30.016 4.608 64.768 7.328 100.128 7.488h0.192c35.552-0.192 70.336-2.88 104.32-7.936l-3.968 0.48c-26.816-115.392-67.968-182.176-100.224-182.336h-0.32c-32.224 0.288-73.344 67.008-100.128 182.272zM675.584 169.984c53.888-12.096 101.312-29.184 145.792-51.296l-3.712 1.664c-54.336-51.072-121.792-88.768-196.768-107.584l-3.072-0.64c25.632 45.536 45.632 98.368 57.152 154.304l0.608 3.552zM687.488 233.12c8.832 53.696 14.56 116.544 15.872 180.448l0.032 1.376h255.040c-6.784-93.824-41.664-178.4-96.192-246.592l0.672 0.896c-50.56 27.424-109.152 49.44-170.912 63.040l-4.48 0.832zM703.36 478.944c-1.312 65.6-7.072 128.704-17.024 190.4l1.024-7.744c66.272 14.528 124.832 36.352 179.136 65.12l-3.776-1.824c53.952-67.36 88.896-152.032 95.584-244.512l0.096-1.44z" />
<glyph unicode="&#xe94d;" glyph-name="graph-circle" d="M448 704v64c-212.064 0-384-171.936-384-384s171.936-384 384-384c212.064 0 384 171.936 384 384v0h-64c0-176.736-143.264-320-320-320s-320 143.264-320 320c0 176.736 143.264 320 320 320v0zM576 896h-32v-416h416v32c-0.256 211.968-172.032 383.744-383.968 384h-0.032zM608 544v286.464c151.36-15.904 270.528-135.104 286.304-285.088l0.128-1.376z" />
<glyph unicode="&#xe94e;" glyph-name="graph-line" d="M128.576 832.896v-769.792h766.848v64h-126.336v382.336h-64v-382.336h-128v491.136h-64v-491.136h-129.6v254.336h-64v-254.336h-126.912v705.792h-64z" />
<glyph unicode="&#xe94f;" glyph-name="graph-plot" d="M895.328 128.416h-702.688v128h63.008c181.12 0 236.512 129.28 285.44 243.296 47.072 109.76 87.68 204.544 226.624 204.544h64v64h-64c-181.12 0-236.512-129.28-285.44-243.296-47.072-109.76-87.68-204.544-226.592-204.544h-63.008v511.168h-64v-767.168h766.688z" />
<glyph unicode="&#xe950;" glyph-name="group" d="M411.072 313.472h-238.912c-94.56-0.128-171.2-76.736-171.328-171.296v-48h64v48c0.064 59.232 48.064 107.232 107.296 107.296h238.912c59.232-0.064 107.264-48.064 107.328-107.296v-47.36h64v47.36c-0.128 94.56-76.768 171.2-171.328 171.296v0zM292.192 379.456c94.592 0.128 171.232 76.768 171.36 171.36v79.648c0 94.624-76.736 171.36-171.36 171.36s-171.36-76.704-171.36-171.36v0-79.616c0.096-94.592 76.768-171.264 171.36-171.36v0zM184.8 630.464c0 59.296 48.064 107.36 107.36 107.36s107.36-48.064 107.36-107.36v0-79.616c0-59.296-48.064-107.36-107.36-107.36s-107.36 48.064-107.36 107.36v0zM851.84 265.536h-211.904v-64h211.904c59.264-0.096 107.264-48.128 107.328-107.36v0h64c-0.096 94.592-76.736 171.264-171.328 171.36v0zM904.256 502.848v79.68c-0.608 94.176-77.088 170.304-171.36 170.304s-170.752-76.128-171.36-170.24v-79.744c0.608-94.176 77.088-170.304 171.36-170.304s170.752 76.128 171.36 170.24v0.064zM625.568 502.848v79.68c0.48 58.944 48.352 106.528 107.328 106.528s106.88-47.584 107.36-106.464v-79.744c-0.48-58.944-48.352-106.528-107.36-106.528s-106.88 47.584-107.36 106.464v0.032z" />
<glyph unicode="&#xe951;" glyph-name="heart-solid" d="M713.6 861.536c-80.64-0.672-152.672-36.928-201.28-93.792l-0.32-0.352c-48.928 57.248-120.96 93.504-201.472 94.176h-0.128c-0.512 0-1.088 0-1.664 0-135.168 0-244.736-109.568-244.736-244.736 0-1.12 0-2.208 0.032-3.328v0.16c0-170.368 152.32-309.184 383.040-519.68l64.96-59.52 64.96 59.040c230.72 210.976 383.040 349.792 383.040 520.16 0 0.928 0.032 2.048 0.032 3.168 0 135.168-109.568 244.736-244.736 244.736-0.576 0-1.184 0-1.76 0h0.096z" />
<glyph unicode="&#xe952;" glyph-name="heart" d="M713.6 797.536c0.352 0 0.8 0 1.216 0 100.064 0 181.216-81.12 181.216-181.216 0-0.96 0-1.888-0.032-2.848v0.128c0-141.728-143.392-272.832-362.080-472.768l-21.76-19.776-22.56 20.672c-217.76 198.656-361.6 329.92-361.6 471.872 0 0.8-0.032 1.76-0.032 2.688 0 100.064 81.12 181.216 181.216 181.216 0.416 0 0.864 0 1.28 0h-0.064c61.12-0.576 115.712-28.096 152.512-71.264l0.224-0.288 48.864-57.728 48.864 57.728c37.056 43.424 91.616 70.976 152.64 71.552h0.096zM713.6 861.536c-80.64-0.672-152.672-36.928-201.28-93.792l-0.32-0.352c-48.928 57.248-120.96 93.504-201.472 94.176h-0.128c-0.512 0-1.088 0-1.664 0-135.168 0-244.736-109.568-244.736-244.736 0-1.12 0-2.208 0.032-3.328v0.16c0-170.368 152.32-309.184 383.040-519.68l64.96-59.52 64.96 59.040c230.72 210.976 383.040 349.792 383.040 520.16 0 0.928 0.032 2.048 0.032 3.168 0 135.168-109.568 244.736-244.736 244.736-0.576 0-1.184 0-1.76 0h0.096z" />
<glyph unicode="&#xe953;" glyph-name="heatmap" d="M756.288 574.464c0-56.16-45.536-101.696-101.696-101.696s-101.696 45.536-101.696 101.696c0 56.16 45.536 101.696 101.696 101.696s101.696-45.536 101.696-101.696zM512 329.376c0-56.16-45.536-101.696-101.696-101.696s-101.696 45.536-101.696 101.696c0 56.16 45.536 101.696 101.696 101.696s101.696-45.536 101.696-101.696zM658.72 839.84c0.256 0 0.544 0 0.832 0 143.232 0 259.36-116.128 259.36-259.36 0-51.936-15.264-100.32-41.568-140.896l0.608 1.024c39.232-12.992 67.072-49.344 67.072-92.192 0-1.088-0.032-2.176-0.064-3.232v0.16c-2.112-52.512-45.184-94.272-97.984-94.336v0c-1.28 0-2.56 0-3.872 0.064-47.808 2.304-86.368 38.976-91.68 85.696l-0.032 0.448c-27.456-11.072-59.264-17.568-92.576-17.76h-0.096c-8.32 0-16.128 1.664-24.224 2.432 0-0.832 0.256-1.6 0.256-2.432 0-0.224 0-0.48 0-0.736 0-124.416-100.832-225.248-225.248-225.248-49.952 0-96.128 16.256-133.472 43.776l0.608-0.448c0.512-1.856 0.992-4.256 1.376-6.688l0.064-0.384c0-40.64-32.96-73.6-73.6-73.6s-73.6 32.96-73.6 73.6c0 40.64 32.96 73.6 73.6 73.6v0c4.768-0.512 9.088-1.408 13.248-2.688l-0.512 0.128c-21.6 33.44-34.432 74.304-34.432 118.144 0 37.12 9.216 72.128 25.472 102.784l-0.576-1.184c-1.12-0.032-2.080-0.64-3.2-0.64-69.312 0-125.536 56.192-125.536 125.536s56.192 125.536 125.536 125.536c69.312 0 125.536-56.192 125.536-125.536 0 0 0 0 0 0v0c-0.8-6.112-1.92-11.488-3.392-16.704l0.192 0.832c22.24 8.928 48 14.432 74.912 15.232h0.32c-1.824 10.208-3.104 22.208-3.52 34.464v0.416c0 143.712 116.512 260.192 260.192 260.192v0zM658.72 903.84c-146.848-0.192-270.848-97.824-310.848-231.68l-0.576-2.304c-34.912 39.936-85.952 64.992-142.848 64.992-104.64 0-189.472-84.832-189.472-189.472 0-75.488 44.16-140.672 108.064-171.136l1.152-0.48c-3.424-16.32-5.376-35.072-5.376-54.304v0c0.032-26.624 3.712-52.352 10.56-76.768l-0.48 1.984c-37.696-24.96-62.208-67.168-62.208-115.104 0-76 61.6-137.6 137.6-137.6 44.32 0 83.744 20.96 108.928 53.504l0.224 0.32c28.32-10.336 61.056-16.352 95.168-16.352 0.064 0 0.128 0 0.224 0v0c138.080 0.192 253.568 96.672 282.912 225.888l0.384 1.952q10.4 1.152 20.832 3.008c27.616-42.624 74.144-70.976 127.392-73.152h0.32l6.4-0.128c0.128 0 0.256 0 0.416 0 87.232 0 158.336 69.088 161.536 155.552v0.288c0.096 1.92 0.128 4.192 0.128 6.464 0 44.672-18.464 85.024-48.16 113.856l-0.032 0.032c13.92 34.528 22.016 74.56 22.048 116.48v0c-0.224 178.976-145.28 323.968-324.224 324.16h-0.032z" />
<glyph unicode="&#xe954;" glyph-name="help" d="M515.168 953.632c-279.84 0-508.832-228.96-508.832-508.832s228.96-508.832 508.832-508.832c279.84 0 508.832 228.96 508.832 508.832-6.368 279.84-228.96 508.832-508.832 508.832 0 0 0 0 0 0zM515.168-0.384c-248.064 0-445.216 197.184-445.216 445.216s197.184 445.216 445.216 445.216c248.064 0 445.216-197.184 445.216-445.216-6.368-241.696-203.52-445.216-445.216-445.216zM470.656 203.136c0 25.44 19.072 44.512 44.512 44.512s44.512-19.072 44.512-44.512-19.072-44.512-44.512-44.512c-25.44 0-44.512 19.072-44.512 44.512zM546.976 317.6h-63.616c0 50.88 82.688 165.376 89.056 171.712 19.072 25.44 31.808 44.512 31.808 69.952 0 31.808-25.44 76.32-95.392 76.32-89.056 0-89.056-63.616-89.056-76.32h-63.616c0 69.952 50.88 139.936 152.64 139.936 108.128 0 159.008-69.952 159.008-139.936 0-50.88-25.44-82.688-50.88-114.496 0 0-69.952-101.76-69.952-127.2z" />
<glyph unicode="&#xe955;" glyph-name="home" d="M512.352 895.968l-448.256-191.68v-704.32h896v704.32zM896.096 63.968h-768v598.080l384.256 164.32 383.744-164.288z" />
<glyph unicode="&#xe956;" glyph-name="image" d="M-6.528 217.376v-281.472h1024v1024.032h-1024zM57.472-0.096v122.4l896 298.72v-421.12zM57.472 895.968h896v-407.552l-896-298.72v706.272zM345.856 452.48c87.136 0 157.76 70.624 157.76 157.76s-70.624 157.76-157.76 157.76c-87.136 0-157.76-70.624-157.76-157.76 0 0 0-0.032 0-0.032v0c0-87.136 70.656-157.728 157.76-157.728v0zM345.856 704c51.776 0 93.76-41.984 93.76-93.76s-41.984-93.76-93.76-93.76c-51.776 0-93.76 41.984-93.76 93.76v0c0.064 51.776 42.016 93.728 93.76 93.792v0z" />
<glyph unicode="&#xe957;" glyph-name="info" d="M512-62.976c0 0 0 0 0 0 282.208 0 510.976 228.768 510.976 510.976s-228.768 510.976-510.976 510.976c-282.208 0-510.976-228.768-510.976-510.976 0 0 0 0 0 0v0c0-282.208 228.768-510.976 510.976-510.976v0zM512 894.976c0 0 0 0 0 0 246.848 0 446.976-200.128 446.976-446.976s-200.128-446.976-446.976-446.976c-246.848 0-446.976 200.128-446.976 446.976 0 0 0 0 0 0v0c0.288 246.752 200.224 446.688 446.944 446.976h0.032zM556.544 660.224c0-24.16-19.936-43.744-44.544-43.744s-44.544 19.584-44.544 43.744c0 24.16 19.936 43.744 44.544 43.744s44.544-19.584 44.544-43.744zM480 530.304h64v-369.728h-64v369.728z" />
<glyph unicode="&#xe958;" glyph-name="invoice" d="M640 959.232h-512v-1024h768v767.776zM832-0.768h-640v896h421.472l218.528-218.752zM448.64 576.512h-64.384c-17.536 0.256-31.68 14.528-31.68 32.128s14.112 31.872 31.648 32.128h128.48v64h-64.288v63.936h-64v-63.936h-0.192c-52.768-0.448-95.328-43.296-95.328-96.128s42.592-95.68 95.296-96.128h64.416c17.536-0.256 31.68-14.528 31.68-32.128s-14.112-31.872-31.648-32.128h-128.512v-64h64.288v-63.936h64v63.936h0.192c52.768 0.448 95.328 43.296 95.328 96.128s-42.592 95.68-95.296 96.128h-0.032z" />
<glyph unicode="&#xe959;" glyph-name="language" d="M774.4 576h-12.8c-12.8 198.4-179.2 352-377.6 352-211.2 0-384-172.8-384-384s172.8-384 384-384c25.6 0 51.2 6.4 76.8 6.4 38.4-25.6 83.2-44.8 134.4-51.2v-153.6l192 153.6c140.8 6.4 236.8 102.4 236.8 230.4 0 134.4-102.4 230.4-249.6 230.4zM697.6 576h-166.4c-6.4 108.8-25.6 204.8-57.6 275.2 121.6-38.4 211.2-140.8 224-275.2zM377.6 864c25.6 0 76.8-108.8 83.2-281.6h-166.4c6.4 172.8 57.6 281.6 83.2 281.6zM70.4 512h166.4c6.4-102.4 19.2-204.8 57.6-268.8-128 38.4-211.2 140.8-224 268.8zM230.4 576h-160c12.8 128 102.4 230.4 217.6 268.8-32-64-51.2-160-57.6-268.8zM377.6 230.4c-25.6 0-76.8 108.8-83.2 281.6h153.6c-44.8-38.4-76.8-96-76.8-166.4 0-38.4 12.8-70.4 25.6-102.4-6.4-6.4-12.8-12.8-19.2-12.8zM774.4 185.6h-12.8l-108.8-83.2v83.2h-25.6c-108.8 0-185.6 70.4-185.6 166.4-6.4 96 70.4 160 185.6 160h147.2c108.8 0 185.6-64 185.6-166.4 0-96-76.8-160-185.6-160z" />
<glyph unicode="&#xe95a;" glyph-name="launch" d="M618.752 509.504l277.28 277.312v-210.816h64v320h-320v-64h210.688l-277.216-277.248zM896.032 832h-0.032zM896 64h-256v-64h320v320h-64v-256zM384 64h-256v256h-64v-320h320v64zM128 832h256v64h-320v-320h64v256z" />
<glyph unicode="&#xe95b;" glyph-name="layers" d="M768.096 319.968l255.904 127.936-256.096 128.032 256.096 128.032-512 256-512-256 256.096-128.032-256.096-128.032 256-128-255.904-127.904 512-256 512 256zM143.104 704l368.896 184.448 368.896-184.448-368.896-184.448zM327.648 540.16l184.352-92.16 184.352 92.16 184.544-92.256-368.896-184.416-368.896 184.448zM143.2 192l184.32 92.16 184.48-92.256 184.544 92.256 184.448-92.16-368.896-184.448z" />
<glyph unicode="&#xe95c;" glyph-name="lightbulb" d="M577.728 889.184c-19.744 4.32-42.432 6.816-65.696 6.816v0c-0.256 0-0.544 0-0.864 0-167.104 0-302.656-135.232-303.136-302.24v-0.032c0-91.072 40.672-172.64 104.864-227.52l0.416-0.352c43.712-37.376 71.296-92.544 71.456-154.144v-211.712h254.56v211.648c0.32 61.856 28.096 117.184 71.744 154.432l0.288 0.224c64.256 55.552 104.704 137.184 104.704 228.288 0 144.064-101.12 264.512-236.288 294.208l-1.984 0.352zM448.704 64v127.872h126.56v-127.872zM669.504 414.816c-46.112-40.032-78.336-95.008-89.12-157.312l-0.224-1.6h-136.288c-10.816 63.776-42.912 118.656-88.64 158.272l-0.32 0.288c-50.784 43.488-82.784 107.648-82.912 179.264v0.032c0.64 131.744 107.584 238.272 239.424 238.272 0.192 0 0.416 0 0.608 0h-0.032c18.688-0.032 36.864-2.048 54.4-5.824l-1.696 0.32c107.84-23.808 187.328-118.56 187.328-231.904 0-71.744-31.84-136.064-82.176-179.552l-0.288-0.256zM1.536 608h125.056v-64h-125.056v64zM61.216 853.632l45.248 45.248 88.448-88.448-45.248-45.248-88.448 88.448zM61.216 298.4l88.48 88.48 45.248-45.248-88.48-88.48-45.248 45.248zM900.224 607.488h125.056v-64h-125.056v64zM831.904 341.12l45.248 45.248 88.448-88.448-45.248-45.248-88.448 88.448zM831.904 809.952l88.448 88.448 45.248-45.248-88.448-88.448-45.248 45.248z" />
<glyph unicode="&#xe95d;" glyph-name="link" d="M992.96 658.816l-158.848 158.848c-17.312 17.312-41.248 28.032-67.648 28.032s-50.336-10.72-67.648-28.032l-126.4-126.4 45.248-45.248 126.4 126.4c5.728 5.728 13.664 9.28 22.4 9.28s16.672-3.552 22.4-9.28l158.848-158.848c5.728-5.728 9.248-13.664 9.248-22.4s-3.52-16.672-9.248-22.4l-317.216-317.248c-5.728-5.728-13.664-9.248-22.4-9.248s-16.672 3.52-22.4 9.248l-158.848 158.816c-5.728 5.728-9.28 13.664-9.28 22.4s3.552 16.672 9.28 22.4v0l55.072 55.040-45.248 45.248-55.040-55.040c-17.312-17.312-28.032-41.248-28.032-67.648s10.72-50.336 28.032-67.648l158.848-158.848c17.312-17.312 41.248-28 67.648-28s50.336 10.688 67.648 28l317.216 317.28c17.312 17.312 28 41.216 28 67.648s-10.688 50.336-28 67.648v0zM279.776 123.552c-5.728-5.728-13.664-9.248-22.4-9.248s-16.672 3.52-22.4 9.248l-158.816 158.848c-5.728 5.728-9.28 13.664-9.28 22.4s3.552 16.672 9.28 22.4l317.216 317.28c5.728 5.728 13.632 9.28 22.368 9.28 0.032 0 0.032 0 0.064 0v0c7.904-0.288 15.040-3.296 20.544-8.16l-0.032 0.032c0.64-0.544 1.28-0.576 1.888-1.152l158.816-158.848c5.728-5.728 9.248-13.664 9.248-22.4s-3.52-16.672-9.248-22.4l-60.096-60.096 45.248-45.248 5.024 4.992 55.072 55.104c17.312 17.312 28.032 41.248 28.032 67.648s-10.72 50.336-28.032 67.648l-158.848 158.848c-17.312 17.312-41.216 28.032-67.648 28.032s-50.336-10.72-67.648-28.032l-317.248-317.248c-17.312-17.312-28.032-41.248-28.032-67.648s10.72-50.336 28.032-67.648l158.848-158.848c17.312-17.312 41.248-28 67.648-28s50.336 10.688 67.648 28l126.4 126.4-45.248 45.248z" />
<glyph unicode="&#xe95e;" glyph-name="lock-locked" d="M704 606.080v64.256c0 106.048-85.952 192-192 192s-192-85.952-192-192v0-64.256h-192v-572.416h768v572.416zM384 670.336c0 70.688 57.312 128 128 128s128-57.312 128-128v0-64.256h-256zM832 97.664h-640v444.416h640zM480 409.76h64v-186.944h-64v186.944z" />
<glyph unicode="&#xe95f;" glyph-name="lock-unlocked" d="M832 922.88c-105.984-0.128-191.872-86.016-192-192v-124.8h-512v-572.416h768v572.416h-192v124.8c0.096 70.656 57.344 127.904 128 128v0c0.864 0.032 1.888 0.032 2.912 0.032 68.992 0 124.928-55.872 125.088-124.832v-64h64v64c0 0.128 0 0.288 0 0.416 0 104.064-84.352 188.416-188.416 188.416-1.28 0-2.528 0-3.776-0.032h0.192zM832 97.664h-640v444.416h640zM479.808 409.504h64v-186.944h-64v186.944z" />
<glyph unicode="&#xe960;" glyph-name="logout" d="M448 191.36h-64v-190.976h-256.384v895.232h256.384v-192.192h64v256.192h-384.384v-1023.232h384.384v254.976zM617.728 790.592l-45.12-45.184 265.472-265.472h-562.88v-63.872h562.88l-265.472-265.472 45.12-45.184 342.656 342.592-342.656 342.592z" />
<glyph unicode="&#xe961;" glyph-name="loudspeaker" d="M833.024 607.488c-0.704 0-1.376-0.192-2.080-0.224v256.256s-287.68-219.424-576-219.424h-192v-320.96h99.488l-99.040-192.544 183.136-98.048 142.080 275.776c169.344-43.008 317.376-116.448 445.184-214.848l-2.848 2.112v256.192c0.704-0.032 1.376-0.224 2.080-0.224 70.688 0 128 57.312 128 128s-57.312 128-128 128v0zM219.424 119.616l-70.24 37.696 85.28 165.824h22.304c23.072-0.032 45.792-1.376 68.128-3.936l-2.784 0.256zM766.976 217.536c-144 96.896-318.912 158.688-507.52 169.472l-2.72 0.128h-129.76v192.96h128c191.296 10.784 366.624 70.624 516.192 166.976l-4.192-2.528zM833.024 415.488c-0.736 0-1.344 0.416-2.080 0.416v127.168c0.736 0 1.344 0.416 2.080 0.416 35.36 0 64-28.64 64-64s-28.64-64-64-64v0z" />
<glyph unicode="&#xe962;" glyph-name="magnet" d="M960.288 320.192h-0.032v130.432h-0.128c-1.344 246.304-201.344 445.472-447.872 445.472s-446.496-199.168-447.872-445.344v-0.128h-0.128v-130.432h-0.352v-64h0.352v-256h256.256v449.184h0.064c0.64 105.536 86.336 190.848 191.936 190.848s191.296-85.312 191.936-190.784v-0.064h0.064v-129.184h-0.224v-64h0.224v-256h255.744v256h0.032zM128.256 64.192v192h128.256v-192zM768.448 449.76c-2.4 139.552-116.064 251.776-255.968 251.776-140.032 0-253.792-112.448-255.968-251.936v-129.376h-128.256v107.104l0.128 22.912c1.248 211.040 172.64 381.664 383.872 381.664s382.592-170.592 383.872-381.536v-0.128l0.128-16.8v-113.248h-127.776zM896.256 64.192h-127.744v192h127.776z" />
<glyph unicode="&#xe963;" glyph-name="manual" d="M810.592 855.040c-22.656 4.768-48.704 7.488-75.392 7.488-43.456 0-85.248-7.232-124.192-20.544l2.688 0.8-95.36-31.776-95.2 31.744c-36.224 12.48-77.92 19.68-121.344 19.68-26.624 0-52.608-2.72-77.728-7.872l2.464 0.416-220.128-43.968v-768l220.16 44c22.624 4.736 48.608 7.456 75.232 7.456 43.392 0 85.088-7.2 124-20.48l-2.688 0.8 95.36-31.744 95.2 31.776c36.256 12.512 78.048 19.744 121.536 19.744 26.688 0 52.736-2.72 77.888-7.904l-2.496 0.416 219.936-44.064v768zM486.4 121.152l-43.072 14.336c-42.24 14.56-90.912 22.944-141.568 22.944-31.040 0-61.344-3.168-90.624-9.184l2.88 0.512-143.616-28.704v637.472l168.672 33.696c18.848 3.936 40.512 6.208 62.72 6.208 36.16 0 70.912-6.016 103.36-17.056l-2.24 0.672 83.488-27.808zM966.528 121.088l-143.36 28.704c-26.464 5.536-56.832 8.736-87.968 8.736-50.72 0-99.488-8.416-144.928-23.968l3.168 0.928-43.008-14.368v633.088l83.52 27.84c30.24 10.432 65.056 16.448 101.312 16.448 22.208 0 43.904-2.272 64.832-6.56l-2.080 0.352 168.512-33.76zM799.648 639.264c0-24.16-19.936-43.744-44.544-43.744s-44.544 19.584-44.544 43.744c0 24.16 19.936 43.744 44.544 43.744s44.544-19.584 44.544-43.744zM723.104 531.52h64v-256h-64v256z" />
<glyph unicode="&#xe964;" glyph-name="map" d="M351.072 895.52l-349.024-105.632-3.424-834.816 352.512 105.696 320.032-96.064 348.928 105.76v834.752l-348.992-105.76zM383.040 819.2l256.128-76.896v-701.28l-256.128 76.896zM65.728 742.4l253.44 76.704v-701.152l-256.32-76.864zM956.16 117.824l-253.152-76.704v701.248l253.152 76.704z" />
<glyph unicode="&#xe965;" glyph-name="maximize" d="M640 895.936v-64h256v-256h64v320h-320zM896 63.936h-256v-64h320v320h-64v-256zM128 319.936h-64v-320h320v64h-256v256zM96 895.936h-32v-320h64v256h256v64h-288z" />
<glyph unicode="&#xe966;" glyph-name="medal" d="M512 955.136c-0.096 0-0.192 0-0.288 0-195.36 0-353.728-158.368-353.728-353.728 0-111.264 51.36-210.496 131.68-275.36l0.672-0.512v-384.64l224.224 149.312 224.224-149.312v388.768c77.984 65.344 127.2 162.784 127.2 271.712 0 195.392-158.4 353.76-353.76 353.76-0.096 0-0.16 0-0.256 0v0zM514.56 167.040l-160.224-106.688v224.256c45.952-23.648 100.256-37.504 157.824-37.504 59.456 0 115.456 14.784 164.512 40.896l-1.888-0.928v-226.72zM512 311.136c0 0 0 0 0 0-160.16 0-290.016 129.824-290.016 290.016s129.824 290.016 290.016 290.016c160.16 0 290.016-129.824 290.016-290.016v0c-0.16-160.096-129.92-289.824-289.984-290.016h-0.032z" />
<glyph unicode="&#xe967;" glyph-name="message-contact-us" d="M287.648 550.112h64v-64h-64v64zM480 550.112h64v-64h-64v64zM672.352 550.112h64v-64h-64v64zM960 192.64v640h-896v-835.552l256 195.552zM281.152 243.52l-153.152-116.992v642.112h768v-512h-597.664z" />
<glyph unicode="&#xe968;" glyph-name="message-double" d="M320.64 379.392v-229.024h456.192l183.808-187.904v640.384h-190.016v254.080h-707.264v-726.816l207.808 249.312zM896.64 134.112v-14.72l-92.864 94.944h-419.136v324.48h512zM127.36 306.816v486.080h579.296v-190.080h-386.016v-159.424h-79.424z" />
<glyph unicode="&#xe969;" glyph-name="message-single" d="M960 192.64v640h-896v-835.552l256 195.552zM281.152 243.52l-153.152-116.992v642.112h768v-512h-597.664z" />
<glyph unicode="&#xe96a;" glyph-name="message-smiley" d="M320 625.056h128v-64h-128v64zM576 625.056h128v-64h-128v64zM323.776 437.376c50.368-42.976 116.256-69.12 188.224-69.12s137.856 26.144 188.608 69.472l-0.416-0.352-41.504 48.736c-39.264-33.504-90.624-53.888-146.72-53.888s-107.456 20.384-147.040 54.144l0.32-0.256zM960 192.64v640h-896v-835.552l256 195.552zM281.152 243.52l-153.152-116.992v642.112h768v-512h-597.664z" />
<glyph unicode="&#xe96b;" glyph-name="mic-off" d="M384.448 450.208v319.712c0 70.688 57.312 128 128 128s128-57.312 128-128v0-18.24l56.864 66.976c-22.848 82.208-97.024 141.536-185.088 141.536-105.376 0-190.912-84.992-191.776-190.176v-340.832c0.224-16.704 2.56-32.768 6.816-48.032l-0.32 1.312zM514.176 303.008h-2.88l-48.512-57.152c14.304-4.128 30.752-6.624 47.744-6.848h3.616c105.024 0.096 190.112 85.184 190.24 190.176v101.28l-64-75.392v-25.888c-0.096-69.664-56.576-126.112-126.24-126.176v0zM363.648 227.968l523.648 616.704-48.832 41.408-705.408-830.848 48.832-41.344 181.76 214.080zM768 435.424c0-0.352 0-0.8 0-1.216 0-140.448-113.856-254.272-254.272-254.272-33.184 0-64.864 6.336-93.92 17.92l1.728-0.608-42.336-49.856c29.472-14.112 63.712-24.096 99.744-28.096l1.44-0.128-0.32-117.952h-96.096v-64h256v64h-95.904l0.32 118.016c161.76 16.448 286.976 151.616 287.648 316.16v76.704h-64zM280.608 327.904c-15.36 31.456-24.416 68.416-24.608 107.456v76.704h-64v-76.64c0.128-59.008 16.576-114.144 45.024-161.184l-0.8 1.408z" />
<glyph unicode="&#xe96c;" glyph-name="mic" d="M510.72 239.008h3.488c105.024 0.096 190.112 85.184 190.24 190.176v340.736c0 106.048-85.952 192-192 192s-192-85.952-192-192v0-340.736c0.128-104.992 85.248-190.080 190.24-190.176v0zM384.448 769.92c0 70.688 57.312 128 128 128s128-57.312 128-128v0-340.736c-0.096-69.664-56.576-126.112-126.24-126.176h-3.488c-69.696 0.032-126.176 56.512-126.272 126.176v0zM768 512.064v-76.64c0-141.376-114.624-256-256-256s-256 114.624-256 256v0 76.64h-64v-76.64c0.64-164.864 126.272-300.192 287.040-316.192l1.312-0.096-0.32-117.952h-96.096v-64h256v64h-95.904l0.32 118.016c161.76 16.448 286.976 151.616 287.648 316.16v76.704z" />
<glyph unicode="&#xe96d;" glyph-name="minimize" d="M959.808 640h-256v256h-64v-320h320v64zM704.192 320h-64v-320h64v256h256v64h-256zM63.808 256h256v-256h64v320h-320v-64zM319.808 640h-256v-64h320v320h-64v-256z" />
<glyph unicode="&#xe96e;" glyph-name="minus-small" d="M256.288 415.616l0.16 64 509.952-1.28-0.16-64-509.952 1.28z" />
<glyph unicode="&#xe96f;" glyph-name="minus" d="M111.872 416.992l0.16 64 800.064-2.016-0.16-64-800.064 2.016z" />
<glyph unicode="&#xe970;" glyph-name="money" d="M0 736v-576h1024v576zM64 672h95.968c-0.064-52.992-42.976-95.936-95.968-96v0zM960 384c-88.352-0.032-159.968-71.648-159.968-160v0h64c0.064 52.992 42.976 95.904 95.968 96v0-96h-896v96c52.992-0.096 95.904-43.008 95.968-96v0h64c0 88.352-71.616 159.968-159.968 160v0 128c88.352 0.032 159.968 71.648 159.968 160 0 0 0 0 0 0v0h576.064c0-88.352 71.616-159.968 159.968-160v0zM960 576c-52.992 0.064-95.904 43.008-95.968 96v0h95.968zM512 608c-88.352 0-160-71.648-160-160s71.648-160 160-160c88.352 0 160 71.648 160 160v0c0 88.352-71.648 160-160 160v0zM512 352c-53.024 0-96 42.976-96 96s42.976 96 96 96c53.024 0 96-42.976 96-96v0c-0.064-52.992-43.008-95.936-96-96v0z" />
<glyph unicode="&#xe971;" glyph-name="more" d="M605.664 777.824c0-51.744-41.952-93.664-93.664-93.664s-93.664 41.952-93.664 93.664c0 51.744 41.952 93.664 93.664 93.664s93.664-41.952 93.664-93.664zM605.664 448c0-51.744-41.952-93.664-93.664-93.664s-93.664 41.952-93.664 93.664c0 51.744 41.952 93.664 93.664 93.664s93.664-41.952 93.664-93.664zM512 211.84c-51.744 0-93.664-41.952-93.664-93.664s41.952-93.664 93.664-93.664c51.744 0 93.664 41.952 93.664 93.664v0c0 51.744-41.952 93.664-93.664 93.664v0z" />
<glyph unicode="&#xe972;" glyph-name="nav" d="M128 704h768v-128h-768v128zM128 320h768v-128h-768v128z" />
<glyph unicode="&#xe973;" glyph-name="network" d="M512.064 415.872h-400l-0.064 271.552h64l0.064-207.552h336v-64zM912.064 415.872h-400v64h336l-0.064 207.552h64l0.064-271.552zM144 894.784c44.192 0 80-35.808 80-80s-35.808-80-80-80c-44.192 0-80 35.808-80 80v0c0.064 44.16 35.84 79.936 80 80v0zM144 958.784c-79.52 0-144-64.48-144-144s64.48-144 144-144c79.52 0 144 64.48 144 144v0c0 79.52-64.48 144-144 144v0zM880 894.784c44.192 0 80-35.808 80-80s-35.808-80-80-80c-44.192 0-80 35.808-80 80v0c0.064 44.16 35.84 79.936 80 80v0zM880 958.784c-79.52 0-144-64.48-144-144s64.48-144 144-144c79.52 0 144 64.48 144 144v0c0 79.52-64.48 144-144 144v0zM512 894.784c44.192 0 80-35.808 80-80s-35.808-80-80-80c-44.192 0-80 35.808-80 80v0c0.064 44.16 35.84 79.936 80 80v0zM512 958.784c-79.52 0-144-64.48-144-144s64.48-144 144-144c79.52 0 144 64.48 144 144v0c0 79.52-64.48 144-144 144v0zM512 160.736c44.192 0 80-35.808 80-80s-35.808-80-80-80c-44.192 0-80 35.808-80 80v0c0.064 44.16 35.84 79.936 80 80v0zM512 224.736c-79.52 0-144-64.48-144-144s64.48-144 144-144c79.52 0 144 64.48 144 144v0c0 79.52-64.48 144-144 144v0zM480.064 714.56h64v-512h-64v512z" />
<glyph unicode="&#xe974;" glyph-name="node" d="M512 224c-123.712 0-224 100.288-224 224s100.288 224 224 224c123.712 0 224-100.288 224-224v0c-0.16-123.648-100.352-223.84-224-224v0zM512 608c-88.352 0-160-71.648-160-160s71.648-160 160-160c88.352 0 160 71.648 160 160v0c-0.096 88.32-71.68 159.904-160 160v0zM512 32c-229.76 0-416 186.24-416 416s186.24 416 416 416c229.76 0 416-186.24 416-416v0c-0.288-229.632-186.368-415.712-415.968-416h-0.032zM512 800c-194.4 0-352-157.6-352-352s157.6-352 352-352c194.4 0 352 157.6 352 352v0c-0.256 194.304-157.696 351.744-351.968 352h-0.032z" />
<glyph unicode="&#xe975;" glyph-name="notification-ring" d="M188.256 335.264c-1.824-11.040-2.88-23.776-2.88-36.736 0-73.312 33.344-138.848 85.664-182.272l0.384-0.32 22.624-22.624 140.736 140.736c1.6-1.856 2.912-3.84 4.64-5.6 23.744-23.744 56.544-38.432 92.8-38.432 72.48 0 131.232 58.752 131.232 131.232 0 36.256-14.688 69.056-38.432 92.8v0c-1.76 1.76-3.744 3.040-5.6 4.64l140.736 140.736-22.624 22.624c-43.744 52.736-109.28 86.080-182.592 86.080-12.96 0-25.696-1.056-38.112-3.040l1.376 0.192-15.072-0.032c-62.080 0.032-90.112 28.8-151.456 91.808l-33.184 33.696c-32.96 38.304-81.504 62.4-135.68 62.4-50.304 0-95.744-20.768-128.224-54.24l-0.032-0.032c-33.472-32.512-54.24-77.92-54.24-128.224 0-54.176 24.096-102.72 62.176-135.488l0.224-0.192 33.728-33.184c63.008-61.344 91.744-89.344 91.776-151.456zM579.776 273.728c-12.16-12.16-28.96-19.648-47.52-19.648s-35.36 7.52-47.52 19.648v0c-1.408 1.76-2.784 3.776-4.032 5.856l-0.128 0.256 93.12 93.12c2.336-1.344 4.32-2.72 6.208-4.224l-0.096 0.064c12.128-12.16 19.648-28.96 19.648-47.52s-7.52-35.36-19.68-47.552v0zM252.288 350.336c0 89.088-44.192 132.128-111.136 197.312l-33.088 32.576c-26.976 21.088-44.16 53.632-44.16 90.176 0 32.768 13.792 62.304 35.904 83.136l0.064 0.064c20.896 22.176 50.464 36 83.232 36 36.544 0 69.088-17.184 90.016-43.904l0.192-0.256 32.576-33.088c65.184-66.944 108.224-111.136 197.312-111.136h15.232c78.656 0.192 103.2 0.224 150.784-42.336l-374.56-374.592c-42.56 47.584-42.528 72.128-42.336 150.784zM831.392 666.368h192v-64h-192v64zM804.544 810.528l140.736 130.624 43.488-46.88-140.736-130.624-43.488 46.88zM807.936 451.936l46.944 43.52 130.528-140.8-46.944-43.52-130.528 140.8z" />
<glyph unicode="&#xe976;" glyph-name="notification" d="M278.656 429.024c-59.296-43.552-97.344-112.992-97.344-191.328 0-7.968 0.384-15.84 1.152-23.584l-0.064 0.992v-32h199.040c-0.16-2.432-0.672-4.8-0.672-7.264 0-72.48 58.752-131.232 131.232-131.232s131.232 58.752 131.232 131.232v0c0 2.464-0.512 4.8-0.672 7.264h199.040v32c0.704 6.784 1.088 14.656 1.088 22.624 0 78.336-38.048 147.776-96.672 190.848l-0.672 0.448-10.688 10.624c-43.872 43.936-43.36 84.064-42.176 172l0.384 47.328c0.352 4.096 0.544 8.896 0.544 13.728 0 98.688-80 178.688-178.688 178.688-0.96 0-1.888 0-2.848-0.032h0.128c-0.8 0-1.76 0.032-2.72 0.032-98.688 0-178.656-80-178.656-178.656 0-4.832 0.192-9.632 0.576-14.368l-0.032 0.64 0.384-47.328c1.184-87.936 1.696-128.064-42.176-172zM512 108.672c-37.088 0.032-67.168 30.112-67.2 67.2v0c0.32 2.784 0.8 5.216 1.44 7.616l-0.096-0.384h131.68c0.576-2.048 1.056-4.48 1.344-7.008l0.032-0.256c-0.064-37.088-30.112-67.168-67.2-67.2v0zM334.592 394.4c63.008 63.008 62.208 124.704 60.928 218.112l-0.384 46.432c-0.576 4.288-0.896 9.216-0.896 14.272 0 63.072 51.104 114.176 114.176 114.176 1.248 0 2.496-0.032 3.744-0.064h-0.192c1.056 0.032 2.272 0.064 3.52 0.064 63.072 0 114.208-51.136 114.208-114.208 0-5.024-0.32-9.952-0.96-14.784l0.064 0.576-0.352-46.432c-1.28-93.44-2.048-155.136 60.928-218.112l10.752-10.752c55.744-55.488 73.12-72.8 76.704-136.544h-529.696c3.552 63.744 20.928 81.056 76.704 136.544z" />
<glyph unicode="&#xe977;" glyph-name="oil" d="M918.4 499.104l-248.672-62.176-47.872 122.72h-128.064l-0.064 32.192h64.544v64h-192.128v-64h63.552l0.064-32.192h-129.152v51.424l-199.040 109.28-102.016-153.6 237.024-122.88v-268.192h420.32l367.488 217.44zM236.608 559.648v-44.384l-143.52 76.544 29.984 45.28 113.536-64.928zM639.424 239.648h-338.816v256h281.728l53.12-133.216 263.328 65.824 21.984-21.984z" />
<glyph unicode="&#xe978;" glyph-name="options" d="M672.384 578.432c58.88 0.128 108.192 40.864 121.504 95.648l0.192 0.864h101.952v58.624h-102.272c-13.696 55.232-62.816 95.488-121.376 95.488s-107.68-40.288-121.184-94.624l-0.192-0.864h-422.464v-58.624h422.176c13.472-55.648 62.816-96.352 121.664-96.512v0zM672.384 770.432c0 0 0.032 0 0.032 0 36.832 0 66.688-29.856 66.688-66.688s-29.856-66.688-66.688-66.688c-36.832 0-66.688 29.856-66.688 66.688 0 0 0 0 0 0v0c0.032 36.8 29.856 66.624 66.656 66.688v0zM672.384 317.568c-58.464-0.16-107.52-40.352-121.152-94.624l-0.192-0.864h-422.496v-58.624h422.176c13.376-55.712 62.752-96.48 121.664-96.48s108.32 40.768 121.504 95.648l0.16 0.864h101.952v58.624h-102.272c-13.824 55.136-62.88 95.328-121.344 95.488h-0.032zM672.384 125.568c0 0-0.032 0-0.032 0-36.832 0-66.688 29.856-66.688 66.688s29.856 66.688 66.688 66.688c36.832 0 66.688-29.856 66.688-66.688v0c-0.032-36.8-29.856-66.624-66.656-66.688v0zM128 418.368h134.464c13.536-55.456 62.784-96 121.536-96s108 40.544 121.344 95.136l0.192 0.864h390.464v58.624h-390.464c-13.536 55.456-62.784 96-121.536 96s-108-40.544-121.344-95.136l-0.192-0.864h-134.464zM384 514.368c0 0 0.032 0 0.032 0 36.832 0 66.688-29.856 66.688-66.688s-29.856-66.688-66.688-66.688c-36.832 0-66.688 29.856-66.688 66.688 0 0 0 0 0 0v0c0.032 36.8 29.856 66.624 66.656 66.688v0z" />
<glyph unicode="&#xe979;" glyph-name="phone-classic" d="M608.128-60.384c-139.424 0-290.592 180.64-375.776 378.016h-0.096c-0.64 1.568-1.28 3.136-1.92 4.672-0.768 1.888-1.568 3.68-2.368 5.568l0.128 0.064c-89.856 227.584-103.84 500 47.104 565.44l114.016 48.992c16.608 8.8 36.32 13.984 57.248 13.984 16.256 0 31.808-3.136 46.016-8.8l-0.832 0.288c29.76-14.656 52.352-40.064 62.976-71.040l0.256-0.864 28-68.256c9.76-18.432 15.488-40.256 15.488-63.456 0-15.776-2.656-30.912-7.52-45.024l0.288 0.96c-16.48-31.84-44.64-55.68-78.688-66.112l-0.928-0.256c-44.928-18.144-76.928-32.32-79.040-49.984 2.24-57.056 15.040-110.592 36.48-159.456l-1.088 2.816 0.128 0.064 4.384-10.56-0.192-0.032c21.152-52.544 50.080-97.632 85.856-136.288l-0.256 0.288c13.952-11.136 45.184 0.864 91.328 20.384 18.048 9.856 39.52 15.648 62.368 15.648 14.592 0 28.64-2.368 41.76-6.72l-0.928 0.256c33.44-16.96 58.592-46.112 69.952-81.472l0.288-0.992 28.992-69.376c7.648-15.52 12.128-33.792 12.128-53.088 0-14.624-2.56-28.64-7.264-41.632l0.256 0.864c-14.72-32.672-42.176-57.408-75.84-68.224l-0.896-0.256-114.976-45.632c-16.768-6.816-36.192-10.784-56.576-10.784-0.064 0-0.128 0-0.224 0v0zM289.504 346.752c95.776-224.928 253.056-375.552 351.872-336.8l115.264 45.696c17.696 4.896 32.032 16.64 40.288 32.096l0.16 0.352c1.504 5.088 2.4 10.912 2.4 16.928 0 9.888-2.336 19.2-6.496 27.488l0.16-0.352-29.952 71.424c-6.048 20-18.656 36.48-35.264 47.296l-0.32 0.192c-4.544 0.96-9.728 1.504-15.072 1.504-14.208 0-27.488-3.904-38.848-10.72l0.352 0.192c-54.752-23.2-111.264-47.2-156.096-11.552-45.504 46.528-81.888 102.24-106.080 164.032l-1.152 3.328c-25.824 56.832-41.152 123.2-41.824 193.088v0.256c6.56 56.864 63.552 79.808 118.72 102.016 19.84 8 38.112 16.384 44.352 31.424 1.248 5.472 1.984 11.744 1.984 18.176 0 14.72-3.744 28.576-10.336 40.64l0.224-0.448-28.8 70.432c-4.928 15.392-15.232 27.872-28.64 35.52l-0.32 0.16c-5.824 1.92-12.544 3.040-19.488 3.040-11.68 0-22.624-3.136-32.064-8.576l0.32 0.16-114.24-49.12c-97.664-42.304-102.4-260.544-11.104-487.872z" />
<glyph unicode="&#xe97a;" glyph-name="phone-cobra" d="M815.808-64h-696.48v32c0 0.384 0 0.864 0 1.344 0 138.24 80.992 257.536 198.080 313.088l2.112 0.896c3.68 216.064 64.512 476.8 225.92 584.256 59.872 39.424 129.92 69.376 205.024 85.632l4.064 0.736c6.4 1.504 13.728 2.368 21.248 2.368 53.184 0 96.32-43.136 96.32-96.32 0-11.296-1.952-22.144-5.536-32.224l0.224 0.672-62.944-181.568c-12.448-36.384-45.184-62.56-84.416-65.088h-0.288c-0.384 0-0.832 0-1.28 0-32.544 0-62.272-11.968-85.056-31.776l0.16 0.128c-43.84-60.032-70.144-135.296-70.144-216.704 0-10.816 0.48-21.504 1.376-32.096l-0.096 1.376c146.24-43.84 251.072-176.96 251.648-334.656v-0.064zM185.088 0h564.896c-14.656 122.048-104.416 219.584-221.12 245.696l-1.888 0.352-22.72 4.8-2.432 23.136c-0.896 8.448-20.576 207.008 84.384 319.68 33.696 31.904 79.232 51.616 129.344 51.936h0.064c13.056 1.248 23.776 10.080 27.744 22.016l0.064 0.224 62.912 181.568c1.216 3.2 1.888 6.912 1.888 10.784 0 8.192-3.104 15.648-8.224 21.248l0.032-0.032c-5.76 6.752-14.24 10.976-23.744 10.976-2.752 0-5.44-0.352-7.968-1.024l0.224 0.064c-71.040-15.104-133.856-41.856-189.696-78.432l2.112 1.28c-145.664-96.992-197.536-348.8-197.536-552.128v-21.76l-20.224-8c-96.608-38.528-166.048-126.112-177.92-231.136l-0.128-1.28z" />
<glyph unicode="&#xe97b;" glyph-name="phone-hangup" d="M116.928 158.496c-0.448 0-0.992 0-1.536 0-31.296 0-59.808 11.872-81.312 31.36l0.096-0.096c-21.408 22.336-34.592 52.736-34.592 86.208 0 3.84 0.16 7.616 0.512 11.36l-0.032-0.48 1.696 123.616c2.688 164.64 259.776 256 504.384 260v0.064c3.68 0.064 7.424 0.064 11.136 0.064v-0.192c244.64-3.552 501.888-94.432 504.8-259.008l1.888-124.064c0.288-3.264 0.48-7.040 0.48-10.848 0-33.376-13.152-63.68-34.56-85.984l0.032 0.032c-21.568-19.456-50.304-31.36-81.792-31.36-3.072 0-6.112 0.128-9.12 0.32l0.416-0.032-73.792 0.192c-3.36-0.288-7.296-0.448-11.264-0.448-34.944 0-66.88 12.768-91.424 33.888l0.192-0.16c-19.712 22.88-31.712 52.864-31.712 85.664 0 4.672 0.256 9.28 0.704 13.824l-0.064-0.576c0.384 50.048-0.544 83.488-16.096 92.128-45.088 17.184-97.216 27.104-151.68 27.104-2.24 0-4.48-0.032-6.752-0.064h0.032v-0.192l-11.424 0.128c-1.824 0.032-4 0.032-6.144 0.032-54.624 0-106.912-10.016-155.136-28.288l3.008 0.992c-15.52-8.672-16.416-43.68-15.936-92.16 0.448-4.032 0.704-8.704 0.704-13.44 0-32.736-11.936-62.688-31.712-85.728l0.16 0.192c-24.416-21.088-56.416-33.92-91.456-33.92-4.064 0-8.064 0.16-12.032 0.512l0.512-0.032-75.136-0.384c-1.472-0.128-3.488-0.224-6.016-0.224zM509.216 606.496c-243.616-3.328-441.76-90.944-443.456-196.992l-1.696-123.936c-0.32-2.464-0.512-5.312-0.512-8.192 0-15.872 5.696-30.4 15.2-41.664l-0.064 0.096c10.336-8.32 23.584-13.344 38.016-13.344 1.472 0 2.944 0.064 4.416 0.16h-0.192l77.408 0.448c2.016-0.16 4.352-0.256 6.72-0.256 18.88 0 36.48 5.568 51.2 15.168l-0.352-0.224c8.096 11.712 12.928 26.24 12.928 41.888 0 3.936-0.32 7.808-0.896 11.584l0.064-0.416c-0.576 59.424-1.184 120.864 48.8 148.704 55.424 22.432 119.68 35.424 186.976 35.424 2.784 0 5.536-0.032 8.288-0.064h-0.416c4.192 0.128 9.088 0.192 14.048 0.192 65.344 0 127.68-12.928 184.576-36.384l-3.232 1.184c49.952-27.68 49.504-89.184 49.056-148.608-0.512-3.328-0.832-7.168-0.832-11.072 0-15.68 4.864-30.24 13.152-42.24l-0.16 0.256c13.44-9.44 30.144-15.104 48.192-15.104 3.104 0 6.208 0.16 9.216 0.512l-0.384-0.032 76.16-0.256c1.568-0.128 3.36-0.224 5.184-0.224 14.688 0 28.224 5.024 38.944 13.44l-0.128-0.096c9.344 11.104 15.040 25.568 15.040 41.376 0 2.848-0.192 5.632-0.544 8.384l0.032-0.32-1.856 124.384c-1.92 106.688-202.944 194.432-448.864 196.192z" />
<glyph unicode="&#xe97c;" glyph-name="pin" d="M692.672 853.888l-262.016-262.016c-16.768 3.456-36.032 5.44-55.776 5.44-79.648 0-151.776-32.224-204.096-84.32l-22.624-22.624 179.936-179.936-223.104-223.104 45.248-45.248 223.104 223.136 182.112-182.080 22.624 22.624c52.096 52.256 84.288 124.384 84.288 204 0 19.712-1.984 38.976-5.728 57.6l0.32-1.856 261.984 262.048zM590.848 367.328c4.768-17.312 7.52-37.184 7.52-57.696 0-50.624-16.736-97.344-44.928-134.944l0.416 0.576-313.568 313.504c36.928 27.872 83.616 44.64 134.208 44.64 20.608 0 40.608-2.784 59.552-8l-1.568 0.384 17.824-4.736 242.368 242.368 135.808-135.808-242.368-242.432z" />
<glyph unicode="&#xe97d;" glyph-name="plus-small" d="M478.656 192.064l64-0.128 0.576 222.976 222.976-0.512 0.192 64-223.040 0.512 0.576 223.040-64 0.128-0.576-222.976-222.912 0.512-0.192-64 222.976-0.512-0.576-223.040z" />
<glyph unicode="&#xe97e;" glyph-name="plus" d="M545.024 847.936l-64 0.128-0.96-368-368 0.96-0.192-64 368.064-0.96-0.96-368 64-0.128 0.96 368 368-0.96 0.192 64-368.064 0.96 0.96 368z" />
<glyph unicode="&#xe97f;" glyph-name="polygon-dashed" d="M65.344 704.064h64v126.528h126.656v64h-190.656v-190.528zM446.528 703.936h64v190.72h-190.528v-64h126.528v-126.72zM129.408 192h-64v-190.656h190.528v64h-126.528v126.656zM894.656 191.936v-126.528h-126.656v-64h190.656v190.528h-64zM894.592 256.064h64v190.592h-190.528v-64h126.528v-126.592zM446.528 573.312v-190.656h190.464v64h-126.464v126.656h-64zM399.232 65.376h240.768v-64h-240.768v64zM65.344 576h64v-256h-64v256z" />
<glyph unicode="&#xe980;" glyph-name="polygon" d="M447.456 832v-448h448.256v-320h-768v768h319.744zM511.456 896h-447.744v-896h896v448h-448.256v448z" />
<glyph unicode="&#xe981;" glyph-name="position" d="M512.064 766.688c0 0 0 0 0 0-70.496 0-127.616-57.152-127.616-127.616s57.152-127.616 127.616-127.616c70.496 0 127.616 57.152 127.616 127.616v0c0 70.496-57.12 127.616-127.616 127.616v0zM512.064 575.424c0 0 0 0 0 0-35.136 0-63.616 28.48-63.616 63.616s28.48 63.616 63.616 63.616c35.136 0 63.616-28.48 63.616-63.616v0c-0.032-35.104-28.512-63.584-63.616-63.616v0zM512 960.128c-176.8 0-320.096-143.328-320.096-320.128 0 0 0 0 0 0v0c0-256.096 320.096-704.128 320.096-704.128s320.096 448.032 320.096 704.128c0 0 0 0 0 0 0 176.8-143.328 320.096-320.096 320.128v0zM255.904 640c0 141.44 114.656 256.096 256.096 256.096s256.096-114.656 256.096-256.096v0c0-161.088-155.008-434.304-256.096-590.080-101.12 155.776-256.096 428.992-256.096 590.080z" />
<glyph unicode="&#xe982;" glyph-name="profile" d="M513.184 739.52c-94.592-0.128-171.232-76.768-171.36-171.36v-79.648c0-0.32 0-0.672 0-1.056 0-94.624 76.704-171.36 171.36-171.36s171.36 76.704 171.36 171.36c0 0.352 0 0.736 0 1.088v-0.064 79.616c-0.096 94.592-76.736 171.264-171.328 171.392v0zM620.544 488.512c0-0.256 0-0.544 0-0.832 0-59.296-48.064-107.36-107.36-107.36s-107.36 48.064-107.36 107.36c0 0.288 0 0.576 0 0.864v-0.032 79.616c0 0.256 0 0.544 0 0.832 0 59.296 48.064 107.36 107.36 107.36s107.36-48.064 107.36-107.36c0-0.288 0-0.576 0-0.864v0.032zM759.040 897.536c-70.816 39.36-155.296 62.528-245.184 62.528-282.816 0-512.064-229.248-512.064-512.064s229.248-512.064 512.064-512.064c192.96 0 360.992 106.72 448.288 264.384l1.344 2.624c39.84 70.976 63.296 155.744 63.296 246.016 0 192.864-107.104 360.704-265.088 447.264l-2.656 1.344zM299.52 54.656c-4.736 2.56-9.056 5.632-13.664 8.384v16.768c0.064 59.264 48.096 107.264 107.328 107.328h238.912c59.264-0.064 107.264-48.064 107.328-107.296v-18.72c-64.608-38.464-142.464-61.184-225.6-61.184-78.592 0-152.448 20.288-216.576 55.936l2.272-1.152zM907.296 233.536c-28.032-50.432-63.584-93.088-105.664-128.192l-0.704-0.576c-12.48 83.104-83.264 146.112-168.8 146.368h-238.944c-85.12-0.256-155.616-62.592-168.576-144.128l-0.128-0.96c-97.248 82.688-158.56 205.152-158.56 341.952 0 247.424 200.576 448 448 448s448-200.576 448-448c0-78.624-20.256-152.512-55.808-216.736l1.184 2.304z" />
<glyph unicode="&#xe983;" glyph-name="projects" d="M736.16 768c-0.384 87.008-69.856 157.664-156.352 160h-129.248c-88.16-1.792-159.296-72.064-162.496-159.712v-0.288h-287.968v-704h1024v704zM450.56 864h129.024c51.392-2.24 92.256-44.288 92.576-95.968v-0.032h-320.096c3.328 52.48 45.76 94.048 98.304 96h0.192zM960.096 128h-896v320h127.904v-128h192v128h256v-128h192v128h128.064zM320 448v-64h-64v64zM768 448v-64h-64v64zM960.064 512h-895.968v192h896z" />
<glyph unicode="&#xe984;" glyph-name="redo" d="M349.728 754.976h608.928v58.624h-608.928c-156.512-0.704-283.136-127.744-283.136-284.384 0-156.544 126.496-283.552 282.848-284.384h0.064l218.656-1.6-119.36-119.36 41.504-41.504 189.824 189.888-189.824 189.888-41.504-41.504 118.784-118.784-217.856 1.6c-124.16 0.672-224.544 101.504-224.544 225.76s100.384 225.056 224.48 225.76h0.064z" />
<glyph unicode="&#xe985;" glyph-name="reload" d="M471.744 66.432l-73.728-58.656 39.872-50.144 164.8 131.2-131.168 164.864-50.048-39.872 66.080-83.072c-165.728 12.512-295.456 150.080-295.456 317.92 0 88.192 35.808 168.032 93.728 225.76v0l-45.248 45.248c-69.472-69.472-112.48-165.472-112.48-271.488 0-197.824 149.632-360.736 341.92-381.632l1.696-0.16zM626.176 888.64l-39.872 50.112-164.8-131.2 131.168-164.8 50.048 39.872-66.144 83.104c165.76-12.544 295.52-150.112 295.52-317.984 0-88.224-35.808-168.064-93.696-225.792v0l45.248-45.248c69.504 69.472 112.48 165.472 112.48 271.52 0 197.824-149.6 360.704-341.856 381.664l-1.696 0.16z" />
<glyph unicode="&#xe986;" glyph-name="resize-down" d="M962.048 853.376l-45.248 45.248-277.28-277.312v210.816h-64v-320h320v64h-210.72zM639.52 576.128h0.064zM130.56 322.080h210.688l-277.248-277.248 45.248-45.248 277.312 277.312v-210.816h64v320h-320zM386.56 322.080v-0.064l-0.064 0.064z" />
<glyph unicode="&#xe987;" glyph-name="resize-up" d="M641.024 898.624v-64h210.688l-277.216-277.248 45.248-45.248 277.28 277.312v-210.816h64v320zM897.024 834.56v0.064zM404.256 386.080l-277.28-277.28v210.784h-64v-320h320v64h-210.688l277.216 277.248zM126.976 63.584h0.064z" />
<glyph unicode="&#xe988;" glyph-name="restore" d="M415.264 340.384l-41.504 41.504-119.008-119.040v249.152c0.064 142.784 115.84 258.528 258.656 258.528 142.848 0 258.656-115.808 258.656-258.656 0-99.52-56.192-185.888-138.592-229.152l-1.408-0.672 27.008-52.128c102.816 53.92 171.744 159.904 171.744 281.984 0 175.264-142.080 317.376-317.376 317.376s-317.344-142.048-317.376-317.312v-249.152l-119.008 119.040-41.504-41.504 189.856-189.888zM513.408 640c-70.688 0-128-57.312-128-128s57.312-128 128-128c70.688 0 128 57.312 128 128v0c-0.096 70.656-57.344 127.904-128 128v0zM513.408 448c-35.36 0-64 28.64-64 64s28.64 64 64 64c35.36 0 64-28.64 64-64v0c-0.032-35.328-28.672-63.968-64-64v0z" />
<glyph unicode="&#xe989;" glyph-name="room" d="M64.064 896v-896h187.68v-0.416l68.8 0.672-1.12 61.568c0 0.64 0 1.408 0 2.176 0 105.344 84.64 190.912 189.632 192.384h0.128l3.584-256.704 63.808 0.64v-0.32h383.488v896zM896.064 64h-319.552l-0.896 256.384h-66.464c-140.224-0.384-253.76-114.144-253.76-254.4 0-0.704 0-1.376 0-2.080v0.096h-127.328v768h768z" />
<glyph unicode="&#xe98a;" glyph-name="routing" d="M882.656 304c0.096 0 0.192 0 0.256 0 79.52 0 144 64.48 144 144s-64.48 144-144 144c-68.192 0-125.312-47.392-140.192-111.040l-0.192-0.96h-183.744l236.32 221.504c23.872-18.88 54.368-30.368 87.52-30.496h0.032c79.52 0 144 64.48 144 144s-64.48 144-144 144c-79.52 0-144-64.48-144-144v0c0.16-23.392 5.92-45.408 16.032-64.8l-0.384 0.8-289.152-271.008h-66.432c-14.976 64.576-72 112-140.128 112s-125.152-47.392-139.936-111.040l-0.192-0.96h-115.936v-64h115.936c14.976-64.576 72-112 140.128-112s125.152 47.392 139.936 111.040l0.192 0.96h65.504l289.92-271.36c-9.632-18.528-15.36-40.416-15.488-63.616v-0.064c0-79.52 64.48-144 144-144s144 64.48 144 144c0 79.52-64.48 144-144 144v0c-33.312-0.128-63.904-11.68-88.096-30.944l0.288 0.224-236.896 221.728h184.576c15.104-64.512 72.064-111.84 140.096-112h0.032zM882.656 528c44.192 0 80-35.808 80-80s-35.808-80-80-80c-44.192 0-80 35.808-80 80v0c0.032 44.16 35.84 79.968 80 80v0zM882.656 895.008c44.192 0 80-35.808 80-80s-35.808-80-80-80c-44.192 0-80 35.808-80 80v0c0.032 44.16 35.84 79.968 80 80v0zM258.624 368c-44.192 0-80 35.808-80 80s35.808 80 80 80c44.192 0 80-35.808 80-80v0c-0.032-44.16-35.84-79.968-80-80v0zM882.624 160.992c44.192 0 80-35.808 80-80s-35.808-80-80-80c-44.192 0-80 35.808-80 80v0c0.032 44.192 35.84 79.968 80.032 80v0z" />
<glyph unicode="&#xe98b;" glyph-name="rss" d="M127.104 453.568c28.544 10.176 61.504 16.256 95.776 16.704h0.224c171.744-0.192 310.944-139.36 311.136-311.104v-0.032c-0.448-34.528-6.56-67.488-17.376-98.208l0.672 2.144h67.84c8.192 29.216 12.928 62.784 12.928 97.44 0 206.432-167.328 373.76-373.76 373.76-34.656 0-68.192-4.704-100.032-13.536l2.624 0.608zM319.104 159.136c0-53.024-42.976-96-96-96s-96 42.976-96 96c0 53.024 42.976 96 96 96s96-42.976 96-96zM127.104 760.608c28.704 5.056 61.92 8.064 95.776 8.32h0.224c336.608-0.384 609.376-273.152 609.824-609.696v-0.032c-0.256-34.112-3.264-67.328-8.832-99.68l0.512 3.616h64.672c4.608 28.672 7.392 61.92 7.68 95.776v0.288c-0.448 371.936-301.888 673.344-673.824 673.76h-0.032c-34.112-0.288-67.328-3.072-99.808-8.16l3.808 0.48z" />
<glyph unicode="&#xe98c;" glyph-name="ruler" d="M992 640.064h-64v-320.128h-160.064v192h-64v-192h-160v320.128h-64v-320.128h-160v192h-64v-192h-159.936v320.128h-64v-384.064h31.936v-0.064l928.064 0.128v384z" />
<glyph unicode="&#xe98d;" glyph-name="scan" d="M396.096 470.080c-0.992-5.76-1.568-12.416-1.568-19.168 0-65.344 52.96-118.304 118.304-118.304s118.304 52.96 118.304 118.304c0 65.344-52.96 118.304-118.304 118.304-20.576 0-39.936-5.248-56.8-14.496l0.608 0.32-280.768 280.8-46.24-46.24 280.256-280.32c-6.56-11.296-11.392-24.448-13.728-38.496l-0.096-0.672zM481.344 493.952c8.416 6.272 19.008 10.016 30.464 10.016v0c0.096 0 0.192 0 0.288 0 2.72 0 5.376-0.224 7.968-0.672l-0.288 0.032c13.984-2.144 25.92-9.696 33.76-20.416l0.096-0.16v-0.064c6.24-8.448 9.984-19.072 9.984-30.56 0-17.056-8.256-32.192-20.96-41.6l-0.128-0.096c-8.48-6.304-19.136-10.080-30.688-10.080-28.576 0-51.744 23.168-51.744 51.744 0 2.816 0.224 5.568 0.64 8.256l-0.032-0.288c2.176 14.016 9.76 25.952 20.48 33.792l0.16 0.096zM512.096 960c-0.192 0-0.448 0-0.672 0-105.6 0-203.68-32.128-285.024-87.136l1.792 1.152 46.656-46.656c67.424 42.752 149.536 68.128 237.568 68.128 247.616 0 448.32-200.736 448.32-448.32s-200.736-448.32-448.32-448.32c-247.616 0-448.32 200.736-448.32 448.32 0 91.040 27.136 175.744 73.76 246.464l-1.056-1.696-46.336 46.336c-56.416-81.088-90.144-181.664-90.144-290.112 0-282.688 229.184-511.872 511.872-511.872s511.872 229.184 511.872 511.872c0 282.688-229.184 511.872-511.872 511.872-0.032 0-0.096 0-0.128 0v0zM234.464 594.208c-23.296-42.272-37.184-92.576-37.536-146.112v-0.096c0-174.048 141.12-315.136 315.168-315.136s315.168 141.088 315.168 315.168-141.088 315.168-315.168 315.168v0c-50.88-0.32-98.784-12.768-141.024-34.592l1.728 0.832 48-48c26.944 10.784 58.176 17.056 90.88 17.056 138.496 0 250.752-112.256 250.752-250.752s-112.256-250.752-250.752-250.752c-138.496 0-250.752 112.256-250.752 250.752 0 35.968 7.584 70.176 21.216 101.088l-0.64-1.6z" />
<glyph unicode="&#xe98e;" glyph-name="search" d="M1003.584 1.024l-250.528 250.496c62.592 72.512 100.704 167.648 100.704 271.712 0 230.208-186.624 416.832-416.832 416.832s-416.832-186.624-416.832-416.832c0-230.208 186.624-416.832 416.832-416.832 103.648 0 198.432 37.824 271.36 100.416l-0.544-0.48 250.592-250.592zM84.416 523.328c0 194.912 158.016 352.896 352.896 352.896s352.896-158.016 352.896-352.896v0c0-194.912-158.016-352.896-352.896-352.896s-352.896 158.016-352.896 352.896v0z" />
<glyph unicode="&#xe98f;" glyph-name="send" d="M511.904 672l-448 224 128-448-128-448 896 448zM165.408 773.696l587.392-293.696h-503.488zM483.296 281.248l-317.888-158.944 83.904 293.696h503.488z" />
<glyph unicode="&#xe990;" glyph-name="server" d="M128.032-64h767.968v1024h-767.968zM192.032 896h639.968v-256h-639.968zM192.032 576h639.968v-256h-639.968zM192.032 256h639.968v-256h-639.968zM640.032 512h128v-64h-128v64zM640.032 832h128v-64h-128v64zM640.032 192h128v-64h-128v64z" />
<glyph unicode="&#xe991;" glyph-name="settings" d="M893.76 576.544c-7.040 20.768-14.496 38.112-23.072 54.784l1.056-2.24 91.936 91.936-180.096 180.064-92.096-92.096c-14.464 7.424-31.872 14.752-49.888 20.832l-2.816 0.832v129.92h-254.688v-130.176c-20.736-7.040-38.112-14.496-54.784-23.072l2.24 1.056-91.936 91.936-180.096-180.096 92.096-92.096c-7.424-14.464-14.752-31.904-20.832-49.92l-0.832-2.816h-129.952v-254.688h130.208c7.040-20.768 14.496-38.112 23.072-54.784l-1.056 2.24-91.936-91.936 180.096-180.128 92.096 92.096c14.464-7.424 31.904-14.752 49.888-20.832l2.816-0.832v-129.952h254.72v130.24c20.736 7.040 38.112 14.496 54.784 23.072l-2.24-1.056 91.904-91.936 180.096 180.096-92.096 92.064c7.424 14.464 14.752 31.904 20.832 49.888l0.832 2.816h129.952v254.688zM960 385.856h-114.752c-9.12-48.448-27.36-91.424-52.992-128.96l0.736 1.152 80.992-80.992-89.6-89.6-80.896 80.896c-35.808-24.8-78.048-43.168-123.648-52.32l-2.144-0.352c-0.64-0.128-1.152-0.384-1.76-0.512v-114.56h-126.72v114.752c-48.416 9.12-91.392 27.392-128.928 53.024l1.152-0.736-81.024-80.992-89.6 89.6 80.928 80.896c-11.552 16.64-22.208 35.616-30.976 55.616l-0.864 2.176-0.064 0.128c-8.544 19.392-15.712 42.112-20.448 65.76l-0.352 2.144c-0.096 0.608-0.384 1.12-0.512 1.728h-114.496v126.656h114.72c9.12 48.448 27.392 91.424 53.024 128.96l-0.736-1.152-80.992 80.992 89.6 89.6 80.896-80.928c35.808 24.8 78.080 43.168 123.68 52.32l2.144 0.352c0.608 0.096 1.12 0.384 1.728 0.48v114.528h126.688v-114.72c48.448-9.12 91.424-27.392 128.928-53.024l-1.152 0.736 80.992 80.992 89.6-89.6-80.928-80.896c24.8-35.808 43.168-78.080 52.352-123.68l0.352-2.144c0.128-0.576 0.384-1.12 0.512-1.728h114.56zM512 601.472c-84.416 0-152.864-68.448-152.864-152.864s68.448-152.864 152.864-152.864c84.416 0 152.864 68.448 152.864 152.864v0c-0.096 84.384-68.48 152.768-152.864 152.864v0zM512 359.744c-49.088 0-88.864 39.776-88.864 88.864s39.776 88.864 88.864 88.864c49.088 0 88.864-39.776 88.864-88.864v0c0-49.088-39.776-88.864-88.864-88.864v0z" />
<glyph unicode="&#xe992;" glyph-name="severity-cleared" d="M1024 448c0-282.784-229.216-512-512-512s-512 229.216-512 512c0 282.784 229.216 512 512 512s512-229.216 512-512z" />
<glyph unicode="&#xe993;" glyph-name="severity-critical" d="M64-1.792h899.584l-449.856 449.792 449.856 449.792h-899.584v-899.584z" />
<glyph unicode="&#xe994;" glyph-name="severity-indeterminate" d="M64.512 896h896v-896h-896v896z" />
<glyph unicode="&#xe995;" glyph-name="severity-major" d="M64 0h896v896l-448-448.064-448 448.064v-896z" />
<glyph unicode="&#xe996;" glyph-name="severity-minor" d="M515.264 447.936l-223.488 447.168-223.616-447.104v-447.104h894.208v447.104l-223.552 447.104-223.552-447.168z" />
<glyph unicode="&#xe997;" glyph-name="severity-warning" d="M64.896 448l149.056-447.104 298.048 447.168 298.048-447.168 149.056 446.464v447.744h-894.208v-447.104z" />
<glyph unicode="&#xe998;" glyph-name="shapes" d="M499.328 481.056c114.976 0 208.192-93.216 208.192-208.192s-93.216-208.192-208.192-208.192c-114.976 0-208.192 93.216-208.192 208.192v0c0.128 114.944 93.28 208.064 208.192 208.192v0zM499.328 545.056c-150.336 0-272.192-121.856-272.192-272.192s121.856-272.192 272.192-272.192c150.336 0 272.192 121.856 272.192 272.192v0c0 150.336-121.856 272.192-272.192 272.192v0zM617.664 587.008l81.92 155.968 153.6-292.416h-68.8l30.592-64h144.128l-259.52 494.016-145.152-276.352 63.232-17.216zM128.896 831.36h380.288v-175.744l64 121.856v117.888h-508.288v-508.288h118.976l30.784 64h-85.76v380.288z" />
<glyph unicode="&#xe999;" glyph-name="share" d="M742.016 548.896c85.632 0 155.072 69.44 155.072 155.104s-69.44 155.104-155.104 155.104-155.104-69.44-155.104-155.104c0 0 0 0 0 0v0c0.256-16.224 2.976-31.712 7.808-46.24l-0.32 1.088-226.944-125.664c-28.64 33.696-71.040 54.912-118.4 54.912-85.632 0-155.072-69.44-155.072-155.072s69.44-155.072 155.072-155.072c49.28 0 93.184 22.976 121.568 58.816l0.256 0.32 221.152-107.584c-3.104-11.2-4.96-24.096-5.12-37.408v-0.096c0-0.512 0-1.12 0-1.76 0-86.656 70.24-156.896 156.896-156.896s156.896 70.24 156.896 156.896c0 86.656-70.24 156.896-156.896 156.896-50.048 0-94.624-23.424-123.36-59.936l-0.256-0.352-220.608 107.392c3.488 11.616 5.504 24.96 5.504 38.752 0 15.68-2.592 30.784-7.36 44.864l0.288-0.992 227.392 125.952c28.352-32.992 70.048-53.792 116.608-53.952h0.032zM742.016 795.104c50.304 0 91.072-40.8 91.072-91.104s-40.8-91.104-91.104-91.104-91.104 40.8-91.104 91.104v0c0.064 50.304 40.832 91.040 91.104 91.104v0zM249.952 341.984c-50.304 0-91.072 40.8-91.072 91.104s40.8 91.104 91.104 91.104 91.104-40.8 91.104-91.104c0 0 0-0.032 0-0.032v0c-0.064-50.272-40.832-91.008-91.104-91.072v0zM742.016 283.168c0 0 0 0 0 0 50.336 0 91.136-40.8 91.136-91.136s-40.8-91.136-91.136-91.136c-50.304 0-91.104 40.768-91.136 91.104v0c0.032 50.304 40.8 91.104 91.104 91.168v0z" />
<glyph unicode="&#xe99a;" glyph-name="shopping-cart" d="M1024 768h-816l-11.52 128h-196.48v-64h138.24l64-735.36h94.080c14.251-55.168 63.061-95.445 121.472-96.64h0.128c58.624 0.811 107.691 40.917 122.027 95.104l0.213 0.896h89.6c14.549-55.083 63.616-95.189 122.155-96h5.205c66.645 4.949 118.827 60.203 118.827 127.659 0 35.712-14.592 67.968-38.187 91.179v0c-22.656 20.693-52.949 33.365-86.187 33.365-1.664 0-3.285-0.043-4.907-0.085h0.256c-34.773-1.749-65.621-17.152-87.595-40.875l-0.085-0.085c-13.227-14.123-22.997-31.616-27.989-51.029l-0.171-0.811h-91.52c-17.621 51.072-65.237 87.083-121.259 87.083s-103.68-36.011-121.003-86.187l-0.256-0.896h-33.28l-14.72 160.64h722.56zM704 168.96c10.667 11.776 25.856 19.328 42.795 19.84h0.085c33.792-1.92 60.459-29.781 60.459-63.915 0-15.36-5.419-29.483-14.464-40.533l0.085 0.128c-11.051-11.605-26.325-19.029-43.392-19.84h-0.128c-0.725-0.043-1.579-0.043-2.432-0.043-16.299 0-31.147 6.101-42.453 16.085l0.085-0.043c-11.605 11.051-19.029 26.325-19.84 43.392v0.128c0.256 17.579 7.552 33.365 19.2 44.8v0zM415.36 188.8c35.328 0 64-28.672 64-64s-28.672-64-64-64c-35.328 0-64 28.672-64 64v0c0 0 0 0.043 0 0.043 0 35.328 28.672 64 64 64 0.896 0 1.792 0 2.688-0.043h-0.128zM913.92 384h-671.36l-28.8 320h736.64z" />
<glyph unicode="&#xe99b;" glyph-name="sidemenu-left-close" d="M0.864 896.512v-896.992h1022.24v896.992zM64.864 832.512h319.456v-768.992h-319.456zM959.136 63.488h-510.784v768.992h510.784zM127.488 704.928h191.968v-64h-191.968v64zM127.488 480h191.968v-64h-191.968v64zM127.488 254.752h192.512v-64h-192.512v64zM722.496 272.768l45.248 45.248-130.496 130.496 130.944 129.216-44.992 45.504-176.768-174.464 176.064-176z" />
<glyph unicode="&#xe99c;" glyph-name="sidemenu-left-open" d="M0.896 896.512v-896.992h1022.24v896.992zM64.896 190.752h63.104v64h-63.104v161.248h63.104v64h-63.104v160.928h63.104v64h-63.104v127.552h131.136v-768.992h-131.136zM959.168 63.488h-699.136v768.992h699.136zM412.608 318.272l44.928-45.504 176.832 174.464-176.064 176-45.248-45.248 130.496-130.496-130.944-129.216z" />
<glyph unicode="&#xe99d;" glyph-name="sidemenu-right-close" d="M1023.136-0.512v896.992h-1022.24v-896.992zM959.136 63.488h-319.456v768.992h319.456zM64.864 832.512h510.784v-768.992h-510.784zM704.544 255.072h191.968v-64h-191.968v64zM704.544 480h191.968v-64h-191.968v64zM704 705.248h192.512v-64h-192.512v64zM301.504 623.232l-45.248-45.248 130.496-130.496-130.944-129.216 44.992-45.504 176.768 174.464-176.064 176z" />
<glyph unicode="&#xe99e;" glyph-name="sidemenu-right-open" d="M1023.136-0.512v896.992h-1022.24v-896.992zM959.136 705.248h-63.072v-64h63.072v-161.248h-63.072v-64h63.072v-160.928h-63.072v-64h63.072v-127.552h-131.136v768.992h131.136zM64.864 832.512h699.136v-768.992h-699.136zM611.392 577.728l-44.928 45.504-176.768-174.464 176-176 45.248 45.248-130.432 130.496 130.88 129.216z" />
<glyph unicode="&#xe99f;" glyph-name="signal" d="M383.008 583.552l-45.632 44.864c-44.576-45.056-72.128-107.040-72.128-175.488 0-0.192 0-0.416 0-0.608v0.032c0-0.48 0-1.088 0-1.664 0-67.52 27.168-128.672 71.168-173.184l-0.032 0.032 4.544-4.768 43.072 47.392c-33.824 33.824-54.752 80.576-54.752 132.192 0 51.136 20.512 97.472 53.792 131.2l-0.032-0.032zM168.64 447.936c0 0.256 0 0.544 0 0.864 0 96.928 39.392 184.672 103.040 248.096v0c5.024 4.992 10.144 9.888 15.392 14.496l-42.304 48q-9.376-8.256-18.368-17.28c-75.232-75.264-121.792-179.264-121.792-294.080 0-115.104 46.752-219.264 122.272-294.592v0l4.416 4.032 40.352 41.632c-63.648 63.328-103.040 151.008-103.040 247.872 0 0.32 0 0.64 0 0.992v-0.064zM250.496 175.040l-19.2-17.536-4.16-4.288 23.36 21.824zM686.624 628.448l-45.632-44.864c33.216-33.728 53.76-80.064 53.76-131.168 0-51.616-20.928-98.368-54.752-132.192v0l43.072-47.36 4.544 4.768c43.968 44.48 71.136 105.632 71.136 173.152 0 0.576 0 1.152 0 1.728v-0.096c0 0.16 0 0.352 0 0.576 0 68.416-27.552 130.432-72.16 175.52l0.032-0.032zM779.232 759.392l-42.304-48c5.248-4.64 10.368-9.504 15.392-14.496 63.68-63.712 103.072-151.68 103.072-248.864s-39.392-185.184-103.072-248.864v0l40.352-41.632 4.416-4.032c75.552 75.328 122.272 179.488 122.272 294.592 0 114.848-46.528 218.816-121.792 294.080v0q-8.992 8.992-18.368 17.248zM796.864 153.216l-4.16 4.288-19.2 17.536 23.36-21.824zM512 510.56c0 0 0 0 0 0-34.56 0-62.56-28-62.56-62.56s28-62.56 62.56-62.56c34.56 0 62.56 28 62.56 62.56v0c0 34.56-28 62.56-62.56 62.56v0z" />
<glyph unicode="&#xe9a0;" glyph-name="simcard" d="M677.632 896l154.528-154.496-0.288-709.504c-0.032-17.664-14.336-31.968-32-32h-576c-17.664 0.032-31.968 14.336-32 32v832c0.032 17.664 14.336 31.968 32 32h453.76zM704.128 960h-480.256c-53.024 0-96-42.976-96-96v0-832c0-53.024 42.976-96 96-96v0h576c53.024 0 96 42.976 96 96v0l0.288 736-192 192zM608.128 608h-192.032c-70.656-0.096-127.904-57.344-128-128v-256c0.096-70.656 57.344-127.904 128-128h192.032c70.656 0.096 127.904 57.344 128 128v256c-0.096 70.656-57.344 127.904-128 128v0zM672.128 224c-0.032-35.328-28.672-63.968-64-64h-0.32v160h-64v-160h-64v160h-64v-159.936c-35.2 0.16-63.68 28.736-63.712 63.936v256c0.032 35.232 28.512 63.776 63.712 63.936v0-159.936h64v160h64v-160h64v160h0.32c35.328-0.032 63.968-28.672 64-64v0z" />
<glyph unicode="&#xe9a1;" glyph-name="sizes" d="M512 960c282.77 0 512-229.23 512-512s-229.23-512-512-512c-282.77 0-512 229.23-512 512s229.23 512 512 512zM512 896c-247.424 0-448-200.576-448-448s200.576-448 448-448c247.424 0 448 200.576 448 448s-200.576 448-448 448zM512 704c176.731 0 320-143.269 320-320s-143.269-320-320-320c-176.731 0-320 143.269-320 320s143.269 320 320 320zM512 640c-141.385 0-256-114.615-256-256s114.615-256 256-256c141.385 0 256 114.615 256 256s-114.615 256-256 256zM512 448c70.692 0 128-57.308 128-128s-57.308-128-128-128c-70.692 0-128 57.308-128 128s57.308 128 128 128zM512 384c-35.346 0-64-28.654-64-64s28.654-64 64-64c35.346 0 64 28.654 64 64s-28.654 64-64 64z" />
</font>
</defs>
</svg>
